<svg xmlns="http://www.w3.org/2000/svg" viewBox="0 0 30.427 30.427" width="30" height="30"><g transform="translate(-48.286 -178.221)"><rect ry="2.825" y="178.221" x="48.286" height="30.427" width="30.427" fill="#003371" paint-order="markers fill stroke"/><path d="M75.02 206.584c-.208-.244-1.167-.938-1.45-2.674-.359-2.212-.81-4.292-.93-4.292-.065 0-1.009.103-2.098.228-2.797.32-6.523.515-8.003.415-1.498-.1-2.015-.344-1.928-.91 0 0-.017-.27.058-.37.189-.253 3.803-.012 3.803-.012 2.744-.008 4.218-.064 5.288-.202 1.666-.214 2.505-.401 2.505-.56a1.04 1.04 0 00-.884-.813l-1.166-.176-3.682-.152c-2.108-.087-4.32-.086-4.584-.251-.467-.293-.207-.74.528-.906.924-.208 4.656-.283 6.541-.131 2.98.24 3.6.35 4.357.778l.703.397.125-.524c.247-1.026-1.172-1.964-3.422-2.263-1.277-.17-4.318-.108-6.355.127-1.215.14-1.267.137-1.717-.127-.525-.308-.614-.821-.181-1.046.155-.08 1.205-.227 2.333-.325 1.874-.163 2.27-.162 4.591.015 4.312.328 6.075.883 6.525 2.055.353.919-.08 2.464-.975 3.475-.559.632-.562.646-.455 1.972.059.735.364 1.862.48 2.554.551 3.254.655 2.368.551 3.254-.061.53-.278.79-.558.464zm-13.656-2.803c-.308-.198-.297-1.279.016-1.546.21-.18.34-.193.881-.088.349.068 2.43.143 4.623.167 4.175.046 4.824.12 4.824.556 0 .126-.167.333-.37.46-.32.2-.628.233-2.18.239-1.77.007-5.064.148-6.727.29-.567.048-.91.023-1.067-.078zm-8.43-.8c-.818-.24-1.823-1.264-2.126-2.168-.602-1.791-.746-6.217-.348-10.68.138-1.551.298-3.402.354-4.113.092-1.153.153-1.334.561-1.687.6-.517 1.961-.855 3.434-.85 2.207.006 3.078.343 3.755 1.451.385.63.39.697.295 3.608-.092 2.815-.391 6.9-.773 10.56-.298 2.863-1.199 3.897-3.475 3.992-.622.025-1.377-.025-1.677-.113zm2.466-1.923c.851-.38 1.265-1.864 1.457-5.23l.072-1.275s.046-.47-.096-.626c-.102-.11-.438-.11-.438-.11-.76-.145-3.19-.03-3.753.042 0 0-.421-.024-.503.128-.135.253-.054.567-.054.567l.008 1.847c-.041 2.186-.012 2.481.307 3.122.378.76.783 1.145 1.582 1.509.634.288.824.291 1.418.026zm1.616-9.909c.184-1.268-.041-4.749-.331-5.13-.14-.185-.572-.405-.998-.508-1.39-.336-2.829.125-3.03.972-.072.303-.435 3.429-.56 4.737-.026.278.025.473.025.543 0 .063.07.106.404.135.374.031.996.044 1.952.044h2.062s.226-.01.317-.089c.088-.075.094-.255.094-.255zm3.585.602c-.367-.158-.612-1.086-.334-1.266.128-.082 1.02-.175 2.12-.22 1.045-.043 1.9-.089 1.9-.102 0-.014-.328-.463-.73-.998-1.39-1.857-2.033-4.085-1.781-6.182.155-1.297.458-1.662 1.271-1.535.867.137 1.028.453 1.138 2.244.155 2.523.945 4.642 2.252 6.036.346.369.578.494.919.494h.456l.001-4.379c0-2.684.076-4.548.195-4.815.192-.432.928-.863 1.257-.736.452.175.659 1.26.676 3.549.017 2.248.037 2.383.386 2.494.203.064.773.266 1.266.448 1.153.426 1.245.368 1.86-1.166.712-1.78.688-3.478 1.385-3.84.237-.122.616-.419 1.098-.108.477.456.583.45.35 1.85-.237.891-.471 1.324-.69 2.005-.435 1.35-1.041 2.308-1.659 2.762 0 0-.168.102-.352.163-.106.036-.323.086-.323.086s-.195.022-.304.02c-.24-.005-.716-.062-.716-.062-.787-.077-1.454-.178-1.786-.21l-.603-.058v1.998l2.737.005c3.179.008 4.006.127 4.092.591.108.585-.42.678-3.855.683-2.82.004-6.414.103-10.396.285-.889.04-1.687.025-1.83-.036z" fill="#fffbf0"/></g></svg>
