<svg xmlns="http://www.w3.org/2000/svg" viewBox="0 0 102.66 24.58" height="1em">
  <defs/>
  <rect width="102.66" height="24.58" fill="#17184b" fill-rule="evenodd" ry="0"/>
  <path fill="#fff" fill-opacity=".99" fill-rule="evenodd" d="M20.69 2.5v3.45h-2.95v-3.4h-1.96v7.1h-2.87V2.56h-1.97v9.22h9.79v3.62c-.67-.73-1.37-1.5-2.05-2.2h-6.52v2.12h5.73l1.34 1.45h-8.3v2.12h9.8v3.53h1.96c0-4.26 0-8.53-.02-12.77h-4.93V8.07h4.91V2.51zm-17.95.06v19.9h7.43V2.56zM4.7 4.7H8.2v15.64H4.7v-6.38h2.77v-2.13H4.7zm6.2 15.64v2.12h7.82v-2.11H10.9z"/>
  <text x="28.99" y="19.29" font-family="Teko" font-size="25" style="line-height:0" transform="scale(1.003 .99703)">
    <tspan x="28.99" y="19.29" fill="#fff">Guang Shi</tspan>
  </text>
</svg>
