<svg xmlns="http://www.w3.org/2000/svg" xmlns:osb="http://www.openswatchbook.org/uri/2009/osb" id="svg839" version="1.1" viewBox="0 0 102.66 24.58" height="1em">
  <defs/>
  <defs id="defs843">
    <linearGradient id="linearGradient1149" osb:paint="solid">
      <stop id="stop1147" offset="0" stop-color="#00cd71" stop-opacity="1"/>
    </linearGradient>
  </defs>
  <rect id="rect874" width="102.66" height="24.58" x="0" y="0" fill="#17184b" fill-opacity="1" fill-rule="evenodd" stroke="none" stroke-linejoin="bevel" stroke-width=".81" ry="0"/>
  <path id="rect1022" fill="#fff" fill-opacity=".99" fill-rule="evenodd" stroke="none" stroke-linejoin="bevel" stroke-width=".52" d="M20.69 2.5v3.45h-2.95v-3.4h-1.96v7.1h-2.87V2.56h-1.97v9.22h9.79v3.62c-.67-.73-1.37-1.5-2.05-2.2h-6.52v2.12h5.73l1.34 1.45h-8.3v2.12h9.8v3.53h1.96c0-4.26 0-8.53-.02-12.77h-4.93V8.07h4.92V2.51zm-17.95.06v19.9h7.43V2.56zM4.7 4.7H8.2v15.64H4.7v-6.38h2.77v-2.13H4.7zm6.2 15.64v2.12h7.82v-2.11H10.9z"/>
  <g id="text875" fill="#fff" fill-opacity="1" stroke-width="1" aria-label="Guang Shi" display="inline" transform="scale(1.00298 .99703)">
    <path id="path914" d="M37.5 8.22h-2.28V6.14q0-.45-.15-.57-.15-.15-.6-.15h-1.28q-.45 0-.6.15-.15.12-.15.57v10.68q0 .45.15.6.15.12.6.12h1.28q.45 0 .6-.12.15-.15.15-.6v-3.83h-1.25v-1.75h3.52v5.85q0 2.23-2.32 2.23h-2.68q-2.32 0-2.32-2.23V5.84q0-2.2 2.32-2.2h2.68q2.32 0 2.32 2.2z"/>
    <path id="path916" d="M44.34 7.1h2.25v12.2h-2.25v-.98q-.33.97-1.55.97h-.9q-2.25 0-2.25-2.2v-10h2.25v9.65q0 .45.15.6.15.13.6.13h.87q.45 0 .63-.2.2-.2.2-.68z"/>
    <path id="path918" d="M53.35 7.1h2.25v12.2h-2.25v-.98q-.33.97-1.55.97h-.9q-2.25 0-2.25-2.2V9.32q0-2.23 2.25-2.23h.9q1.22 0 1.55.98zm-1.7 10.37h.87q.45 0 .63-.2.2-.2.2-.68V9.8q0-.47-.2-.67-.18-.2-.63-.2h-.87q-.45 0-.6.15-.15.12-.15.57v7.1q0 .45.15.6.15.13.6.13z"/>
    <path id="path920" d="M61.58 7.1h.87q2.28 0 2.28 2.22v9.97h-2.25V9.64q0-.45-.15-.57-.15-.15-.6-.15h-.88q-.45 0-.65.2-.17.2-.17.67v9.5h-2.25V7.1h2.25v.98q.32-.98 1.55-.98z"/>
    <path id="path922" d="M71.46 7.1h2.25v13.44q0 2.2-2.35 2.2h-4.17v-1.77h3.52q.45 0 .6-.15.15-.15.15-.58v-2.07q-.32.97-1.55.97h-.9q-2.25 0-2.25-2.22v-7.6q0-2.23 2.25-2.23h.9q1.23 0 1.55.98zm-1.7 10.22h.88q.45 0 .62-.2.2-.2.2-.68V9.8q0-.47-.2-.67-.17-.2-.62-.2h-.88q-.45 0-.6.15-.15.12-.15.57v6.95q0 .43.15.58.15.15.6.15z"/>
    <path id="path924" d="M84.2 16.74v-3.82q0-.45-.14-.58-.13-.15-.58-.15h-1.85q-2.27 0-2.27-2.22V5.84q0-2.2 2.32-2.2h2.45q2.33 0 2.33 2.2v2.3h-2.28V6.2q0-.45-.15-.57-.15-.15-.6-.15h-1.05q-.45 0-.6.15-.15.12-.15.57v3.48q0 .45.15.6.15.12.6.12h1.83q2.3 0 2.3 2.2v4.5q0 2.2-2.35 2.2h-2.43q-2.32 0-2.32-2.2v-2.3h2.27v1.95q0 .45.15.6.15.13.6.13h1.05q.45 0 .58-.13.15-.15.15-.6z"/>
    <path id="path926" d="M92.34 7.1h.88q2.27 0 2.27 2.22v9.97h-2.25V9.64q0-.45-.15-.57-.15-.15-.6-.15h-.87q-.45 0-.65.2-.18.2-.18.67v9.5h-2.25V2.57h2.25v5.5q.33-.98 1.55-.98z"/>
    <path id="path928" d="M97.62 4.77V2.54h2.35v2.23zm2.3 14.52h-2.25V7.1h2.25z"/>
  </g>
</svg>
