<svg xmlns="http://www.w3.org/2000/svg" xmlns:xlink="http://www.w3.org/1999/xlink" width="198.732" height="267.808" viewBox="0 0 52.581 70.858"><defs><symbol id="f" overflow="visible"><path d="M4.313-5.75c-.391.328-.813.563-1.22.563-.327 0-.546-.141-.827-.297-.235-.141-.485-.266-.797-.266-.203 0-.407.063-.578.14a1.857 1.857 0 00-.454.282L0-4.984l.11.14c.39-.328.812-.562 1.218-.562.328 0 .547.125.828.297.235.125.485.265.797.265.203 0 .406-.062.578-.14A2.33 2.33 0 004-5.266l.422-.359zm0 0"/></symbol><symbol id="g" overflow="visible"><path d="M3.11-2.984c-.22.015-.376.187-.376.359 0 .11.079.234.25.234.172 0 .36-.14.36-.453 0-.36-.344-.672-.938-.672-1.062 0-1.36.813-1.36 1.157 0 .625.595.734.829.796.406.079.828.157.828.594 0 .219-.187.875-1.14.875-.11 0-.72 0-.907-.422.297.047.5-.187.5-.421 0-.172-.125-.282-.297-.282-.203 0-.437.172-.437.532 0 .453.453.78 1.125.78 1.297 0 1.61-.968 1.61-1.327a.834.834 0 00-.25-.579c-.22-.234-.438-.265-.798-.343-.28-.063-.609-.11-.609-.469 0-.234.203-.719.906-.719.188 0 .594.047.703.36zm0 0"/></symbol><symbol id="h" overflow="visible"><path d="M1.875-3.547c0-.156-.016-.156-.172-.156-.36.344-.86.36-1.094.36v.202c.125 0 .5 0 .813-.156v2.844c0 .187 0 .25-.563.25H.641V0c.109 0 .796-.016 1-.016.171 0 .875.016 1 .016v-.203h-.22c-.546 0-.546-.063-.546-.25zm0 0"/></symbol><symbol id="i" overflow="visible"><path d="M4.313-5.75c-.391.328-.813.563-1.22.563-.327 0-.546-.141-.827-.297-.235-.141-.485-.266-.797-.266-.203 0-.407.063-.578.14a1.857 1.857 0 00-.454.282L0-4.984l.11.14c.39-.328.812-.562 1.218-.562.328 0 .547.125.828.297.235.125.485.265.797.265.203 0 .406-.062.578-.14A2.33 2.33 0 004-5.266l.422-.359zm0 0"/></symbol><symbol id="j" overflow="visible"><path d="M3.11-2.984c-.22.015-.376.187-.376.359 0 .11.079.234.25.234.172 0 .36-.14.36-.453 0-.36-.344-.672-.938-.672-1.062 0-1.36.813-1.36 1.157 0 .625.595.734.829.796.406.079.828.157.828.594 0 .219-.187.875-1.14.875-.11 0-.72 0-.907-.422.297.047.5-.187.5-.421 0-.172-.125-.282-.297-.282-.203 0-.437.172-.437.532 0 .453.453.78 1.125.78 1.297 0 1.61-.968 1.61-1.327a.834.834 0 00-.25-.579c-.22-.234-.438-.265-.798-.343-.28-.063-.609-.11-.609-.469 0-.234.203-.719.906-.719.188 0 .594.047.703.36zm0 0"/></symbol><symbol id="k" overflow="visible"><path d="M2.813-1.016h-.188c-.016.125-.063.454-.14.516-.047.031-.47.031-.547.031H.905a12.68 12.68 0 011.11-.937c.421-.328.796-.688.796-1.203 0-.688-.593-1.094-1.296-1.094-.704 0-1.172.484-1.172 1 0 .281.25.312.297.312.14 0 .296-.093.296-.296 0-.094-.03-.297-.328-.297.172-.391.563-.516.813-.516.562 0 .86.438.86.89 0 .485-.345.86-.532 1.063L.406-.219C.344-.172.344-.156.344 0h2.312zm0 0"/></symbol><marker id="b" refX="0" refY="0" orient="auto" overflow="visible"><path d="M-4 0l-2 2 7-2-7-2z" fill-rule="evenodd" stroke="#000" stroke-width=".533"/></marker><marker id="c" refX="0" refY="0" orient="auto" overflow="visible"><path d="M4 0l2-2-7 2 7 2z" fill-rule="evenodd" stroke="#000" stroke-width=".533"/></marker><marker orient="auto" refY="0" refX="0" id="a" overflow="visible"><path d="M-4 0l-2 2 7-2-7-2z" fill-rule="evenodd" stroke="#000" stroke-width=".533"/></marker><marker orient="auto" refY="0" refX="0" id="e" overflow="visible"><path d="M-4 0l-2 2 7-2-7-2z" fill-rule="evenodd" stroke="#000" stroke-width=".533"/></marker><marker orient="auto" refY="0" refX="0" id="d" overflow="visible"><path d="M4 0l2-2-7 2 7 2z" fill-rule="evenodd" stroke="#000" stroke-width=".533"/></marker></defs><g transform="translate(-36.369 -116.644)"><path d="M60.265 154.46l-9.26 9.26m9.26-9.26l9.26 18.52m-9.26-18.52l-18.521-9.261m18.663 9.337l18.37 9.176" fill="none" stroke="#000" stroke-width=".265"/><path d="M60.26 154.451l-8.58-17.189" fill="none" stroke="#000" stroke-width=".265" marker-end="url(#a)"/><path d="M69.532 145.205l9.349 18.711" fill="none" stroke="#000" stroke-width=".265"/><path d="M51.012 135.943l17.219 8.595" fill="none" stroke="#000" stroke-width=".265" marker-end="url(#b)"/><path d="M51.004 163.72l18.521 9.26m-27.781-27.781l9.26 18.52m9.261-37.041l18.52 9.26m9.261 18.522l-9.26-18.521m-9.261-18.521l9.26 18.52M51.004 163.72l9.26 18.52" fill="none" stroke="#000" stroke-width=".265"/><circle cx="51.015" cy="163.732" r=".735" fill="#be00c4" stroke="#0055c9" stroke-width=".3" stroke-linecap="square"/><path d="M60.265 126.678l-9.26 9.26m18.52-18.52l-9.26 9.26m-9.261 9.261l-9.26 9.26m27.781 27.781l-9.26 9.26m18.52-18.52l-9.26 9.26m9.26-9.26l9.26-9.26" fill="none" stroke="#000" stroke-width=".265"/><circle cx="78.778" cy="163.766" r=".735" fill="#be00c4" stroke="#0055c9" stroke-width=".3" stroke-linecap="square"/><circle r=".735" cy="173.121" cx="69.49" fill="#ea3d3d" stroke="#0055c9" stroke-width=".3" stroke-linecap="square"/><circle r=".735" cy="182.275" cx="60.269" fill="#121fae" stroke="#0055c9" stroke-width=".3" stroke-linecap="square"/><circle cx="41.694" cy="145.057" r=".735" fill="#ea3d3d" stroke="#0055c9" stroke-width=".3" stroke-linecap="square"/><circle r=".735" cy="136.037" cx="50.982" fill="#be00c4" stroke="#0055c9" stroke-width=".3" stroke-linecap="square"/><circle r=".735" cy="117.529" cx="69.624" fill="#ea3d3d" stroke="#0055c9" stroke-width=".3" stroke-linecap="square"/><path d="M60.924 153.8l8.237-8.237" fill="none" stroke="#000" stroke-width=".265" marker-start="url(#c)"/><path d="M60.265 126.678l9.26 18.521" fill="none" stroke="#000" stroke-width=".265"/><circle r=".735" cy="126.683" cx="60.336" fill="#121fae" stroke="#0055c9" stroke-width=".3" stroke-linecap="square"/><circle r=".735" cy="154.545" cx="60.269" fill="#121fae" stroke="#0055c9" stroke-width=".3" stroke-linecap="square"/><path d="M78.785 135.939l-9.26 9.26m18.521 9.261l-18.521-9.261" fill="none" stroke="#000" stroke-width=".265"/><circle cx="78.844" cy="136.037" r=".735" fill="#be00c4" stroke="#0055c9" stroke-width=".3" stroke-linecap="square"/><circle r=".735" cy="145.191" cx="69.49" fill="#ea3d3d" stroke="#0055c9" stroke-width=".3" stroke-linecap="square"/><circle cx="88.065" cy="154.478" r=".735" fill="#121fae" stroke="#0055c9" stroke-width=".3" stroke-linecap="square"/><path transform="translate(-23.52 8.553)" d="M76.73 175.292H63.5v-13.23" fill="none" stroke="#000" stroke-width=".265" marker-start="url(#d)" marker-end="url(#e)"/><use transform="translate(44.87 184.903) scale(.35278)" y="6.166" x=".606" xlink:href="#f" width="100%" height="100%"/><use transform="translate(44.87 184.903) scale(.35278)" y="6.166" x=".51" xlink:href="#g" width="100%" height="100%"/><use transform="translate(44.87 184.903) scale(.35278)" y="7.366" x="4.246" xlink:href="#h" width="100%" height="100%"/><g transform="translate(36.155 175.907) scale(.35278)"><use y="6.166" x=".606" xlink:href="#i" width="100%" height="100%"/><use y="6.166" x=".51" xlink:href="#j" width="100%" height="100%"/><use y="7.366" x="4.246" xlink:href="#k" width="100%" height="100%"/></g></g></svg>