<svg version="1" xmlns="http://www.w3.org/2000/svg" width="933.333" height="933.333" viewBox="0 0 700.000000 700.000000"><path d="M51.2 1.5c-13.4 2.9-27.3 11.3-36 21.8C9.5 30.1 3.4 42.7 1.5 51.5c-2.2 10.5-2.2 586.4 0 597 1.8 8.7 8 21.4 13.7 28.1 9 10.6 23 19.1 36.4 21.9 10.4 2.2 586.4 2.2 596.8 0 13.4-2.8 27.4-11.3 36.4-21.9 5.7-6.7 11.9-19.4 13.7-28.1 2.2-10.6 2.2-586.5 0-597-5.2-24.6-25.4-44.8-50-50C638.4-.6 61-.6 51.2 1.5zM484 48.7c5.5 3.2 9.1 12.8 11.5 30.9.9 6.6 1.9 26.7 2.5 51.4 1 41.5 1.8 50.3 4.8 53.1 2.5 2.5 44.9 17.2 50.8 17.7 10 .8 14-3.8 23.5-27.3 6.5-16.1 9.7-26.7 16.4-53.9 7.1-29.1 10-34.9 20.2-40.3 11.7-6.3 18-5.5 26.6 3.5 7 7.4 7.6 10.6 5.4 27.4-1.7 12.3-3.1 16.9-17.2 56.3-9.7 27.4-18.7 44.1-30.3 56.6-9 9.8-21.8 14.6-35.2 13.4-7.6-.8-56.6-6.2-62.7-7.1l-4.3-.5V276h41.3c83.2.1 110.3 2.7 114.8 11.1 2 3.8 1.4 9.1-1.4 11.5-6.1 5.3-20.2 6.2-113.2 7.4-42.9.5-91.3 1.4-107.5 2-36.6 1.2-100.9 3.8-115.2 4.5-5.9.3-15.3.3-21-.1l-10.3-.7-3.7-3.8c-5.7-6-8.9-19.7-5.5-24.3 2.4-3.3 15.3-4.8 62.6-7.1 16.8-.9 30.6-1.7 30.8-1.9.2-.1-3.8-5.9-8.9-12.7-28.7-38.8-41.4-66.5-47.3-102.9-5.6-35-.4-74.2 10.8-82.2 2.8-2 4.4-2.3 12.2-2.3 10.9 0 17 2.1 21.5 7.2 5.5 6.2 7.3 13.7 9.5 40.8 3.7 45.4 10.3 72.5 25 102 8.4 16.8 17 29.4 27.5 40.3 8.7 9.1 13 11.1 23.3 11.2h7.7v-63.8c0-66.9 1.2-119.9 3-136.7 1.3-11.6 3.3-15.5 11.5-21.7 8.3-6.3 15.5-8.1 20.5-5.1zm-309 73.4c35.3 3.3 52.3 13.4 64.8 38.7l3.7 7.6-.1 37.1c-.1 56.1-4.6 132.5-13.5 228.5-6.3 68.8-8.8 82.5-18.2 102-5.7 11.6-16.2 22.4-26.8 27.4-14.6 7-20.4 8-47.4 8-20.6.1-24.9-.2-30-1.7-20.5-6.3-43-29.7-50-52-12.3-38.7-16-132.3-9-223.7C51.3 257.3 59 169.4 60 163c1.6-10.4 2.8-13.5 7.1-18.4 15.5-17.5 60.5-26.9 107.9-22.5zM478.3 335c73.6 5.5 112.9 12.7 136.1 24.8 8.4 4.3 18.3 13.7 21.3 20.3 10.4 22.3.6 57.5-23.9 86-6.8 7.9-8.8 12.8-8.8 22 0 12.5 1.9 28.4 5.6 46.4 2 9.3 5.8 28.9 8.5 43.5 2.7 14.6 6.6 32.8 8.5 40.4 3.2 13 3.4 14.4 2.4 21.3-1.6 11.6-4.7 17.2-8.9 15.8-2.7-.8-16-15-21.1-22.5-9.9-14.6-13.3-25.1-19.5-60.5-6.7-37.9-12.1-63.4-16.1-75.7l-1.5-4.7-4.2.5c-66.5 7.9-121.3 12.4-178 14.4-58.2 2.1-89.6-2.3-94.2-13.4-2-4.8-.9-15.3 1.9-16.9 2.5-1.4 30-1.5 91.6-.3 54.9 1.1 92.6-.4 125.5-5 25.7-3.6 45-7.9 47.4-10.7 1.7-2.1-3.3-11.3-8.2-14.8-4.9-3.5-7.5-4.3-24.7-6.9-13.8-2.1-28.4-2.8-102.5-5.5-63.6-2.2-91.6-3.5-96.3-4.4-5.3-1-10.2-5.4-10.2-9.1 0-3.4 3.4-7.2 9.1-10 10.4-5.4 38.5-7.4 99.9-7.4 39.7 0 50.2.4 71.5 2.3 60.4 5.3 70.9 7.5 91.5 19.1 5.9 3.3 11.1 6 11.7 6 1.6 0 4.6-14.8 3.9-19.2-1.3-8.2-7.9-17.3-17.2-23.6-10.6-7.3-30.2-14.5-48.5-18.1-16.9-3.2-30.2-4.1-63.4-4.1-36.5 0-58.7 1.1-93.5 4.6-14 1.4-27.4 2.3-29.7 2-9.2-1.2-19.2-8.2-21.9-15.2-1.6-4.2-1.6-4.8-.1-7.9 2.3-4.8 4.9-6.2 14.7-7.9 8.9-1.5 40.4-5.1 57.5-6.5 19.2-1.6 55.5-1.2 83.8.9zM327 550.9c7.9 1 53.7 2.4 133 4.2 61.6 1.3 73.8 2.6 77.6 8.4 2.3 3.5 1.2 6.5-4 11.3-7.6 7-9.6 7.3-56.1 8.2-47.4 1-85.4 2.5-118 4.6-55.8 3.6-58.3 3.4-61.7-4.4-1.7-3.7-2-6-1.6-13.6.5-10.5 2.5-15.8 7.2-18.8 3.3-2.1 6-2 23.6.1z"/><path d="M136.5 166c-6.9 1.1-14.4 3.5-19.9 6.2-5.9 3-13.3 10.4-15 15.1C99 194.4 88 288.1 88 303.3c0 6.3.4 8.8 1.5 9.7 2.1 1.8 40.9 3.2 76.7 2.8 27.2-.3 28.9-.4 30.7-2.3 6.1-6.2 7-67.9 1.6-110-2.8-22.3-4.5-25.7-15-30.9-11.9-5.8-32.9-8.8-47-6.6zM133 357.7c-25.2 1-41.2 2.7-43.3 4.4-2.2 1.7-2.2 1.8-2.4 47.1-.3 62.6.6 69.9 10.6 86.7 8.2 13.8 19 22.9 36.1 30.2 10.6 4.6 18 4.6 27.5.1 8.2-3.9 10.7-6 15-12.7 11.7-18.3 17.6-52 21.6-123.8 1.3-23.7.8-27.7-3.9-29.6-6-2.4-35.1-3.5-61.2-2.4z"/></svg>