<?xml version="1.0" standalone="no"?>
<!DOCTYPE svg PUBLIC "-//W3C//DTD SVG 20010904//EN"
 "http://www.w3.org/TR/2001/REC-SVG-20010904/DTD/svg10.dtd">
<svg version="1.0" xmlns="http://www.w3.org/2000/svg"
 width="1280.000000pt" height="1280.000000pt" viewBox="0 0 1280.000000 1280.000000"
 preserveAspectRatio="xMidYMid meet">
<metadata>
Created by potrace 1.11, written by Peter Selinger 2001-2013
</metadata>
<g transform="translate(0.000000,1280.000000) scale(0.100000,-0.100000)"
fill="#000000" stroke="none">
<path d="M409 12785 c-199 -48 -347 -198 -394 -397 -13 -55 -15 -772 -15
-5988 0 -5216 2 -5933 15 -5988 48 -201 197 -350 397 -396 60 -14 665 -16
5990 -16 5213 0 5931 2 5986 15 201 48 350 197 396 397 14 60 16 665 16 5988
0 5323 -2 5928 -16 5988 -46 200 -195 349 -396 397 -55 13 -771 15 -5993 14
-4964 -1 -5939 -3 -5986 -14z m11181 -2740 l0 -1445 -1280 0 -1280 0 0 -410 0
-410 1283 0 1284 0 6 -1237 c4 -681 7 -2180 7 -3330 l0 -2093 -510 0 -510 0 0
920 0 920 -2555 0 -2555 0 0 555 0 555 2159 2 2158 3 -341 372 -341 371 -1492
1 -1493 1 0 555 0 555 1694 0 1694 0 163 -173 c90 -95 328 -350 528 -567 201
-217 369 -397 373 -398 4 -2 7 419 6 935 l-3 938 -2547 3 -2548 2 0 2395 0
2395 510 0 510 0 0 -1840 0 -1840 750 0 750 0 0 1845 0 1845 510 0 510 0 0
-885 0 -885 770 0 770 0 0 895 0 895 510 0 510 0 0 -1445z m-6502 -3762 l-3
-5178 -1932 -3 -1933 -2 0 5180 0 5180 1935 0 1935 0 -2 -5177z m4452 -4623
l0 -550 -2035 0 -2035 0 0 550 0 550 2035 0 2035 0 0 -550z"/>
<path d="M2240 8500 l0 -1860 720 0 720 0 0 -555 0 -555 -720 0 -720 0 0
-1660 0 -1660 915 0 915 0 -2 4073 -3 4072 -912 3 -913 2 0 -1860z"/>
</g>
</svg>
