<?xml version="1.0" standalone="no"?>
<!DOCTYPE svg PUBLIC "-//W3C//DTD SVG 20010904//EN"
 "http://www.w3.org/TR/2001/REC-SVG-20010904/DTD/svg10.dtd">
<svg version="1.0" xmlns="http://www.w3.org/2000/svg"
 width="400.000000pt" height="400.000000pt" viewBox="0 0 400.000000 400.000000"
 preserveAspectRatio="xMidYMid meet">
<metadata>
Created by potrace 1.14, written by Peter Selinger 2001-2017
</metadata>
<g transform="translate(0.000000,400.000000) scale(0.100000,-0.100000)"
fill="#000000" stroke="none">
<path d="M0 2858 c1 -861 3 -1138 12 -1123 6 11 23 30 37 42 22 20 27 21 42 7
14 -13 20 -12 54 2 33 14 41 14 68 0 21 -9 35 -11 43 -5 13 11 44 2 44 -13 0
-5 9 -6 20 -3 14 5 20 2 20 -9 0 -9 7 -16 15 -16 8 0 15 5 15 10 0 6 7 10 15
10 18 0 20 17 3 22 -9 3 -9 6 0 12 7 4 12 2 12 -3 0 -6 7 -11 16 -11 8 0 12
-4 9 -10 -8 -13 1 -13 26 1 16 8 26 7 44 -5 24 -16 80 -13 91 5 8 14 44 11 44
-3 0 -9 4 -8 10 2 5 8 10 10 10 4 0 -6 14 -11 30 -11 17 0 30 3 30 6 0 15 55
7 74 -11 20 -18 21 -18 24 -1 5 25 22 41 22 21 0 -17 34 -19 59 -4 8 5 17 3
22 -5 7 -12 16 -10 50 8 39 21 42 21 66 6 23 -16 26 -16 35 0 14 26 41 22 33
-4 -5 -15 -4 -19 4 -15 6 4 11 14 11 22 0 8 7 14 15 14 8 0 15 -4 15 -10 0 -5
9 -10 19 -10 11 0 23 -5 26 -10 4 -6 11 -5 20 3 8 9 39 14 80 15 55 1 66 -1
61 -13 -8 -22 8 -18 30 6 12 14 25 18 41 14 13 -3 23 -1 23 5 0 6 5 8 12 4 7
-4 34 -9 60 -10 28 -1 64 -12 84 -23 20 -12 39 -19 44 -16 5 3 11 -1 14 -7 3
-7 3 3 0 22 -13 92 -17 325 -8 498 3 72 2 112 -5 112 -17 0 -23 -20 -11 -35
10 -12 9 -15 -3 -15 -25 0 -30 -20 -11 -41 16 -18 16 -19 -1 -19 -16 0 -16 -2
-2 -24 13 -20 14 -27 3 -41 -21 -28 -34 -10 -41 58 -8 75 4 113 42 129 16 7
36 20 46 30 20 20 62 24 73 7 3 -6 0 -15 -7 -20 -11 -7 -9 -9 6 -9 16 0 14 -4
-12 -21 -34 -21 -42 -42 -22 -55 8 -4 7 -9 -2 -15 -8 -5 -14 -37 -16 -96 -1
-48 -3 -88 -4 -88 -1 0 -2 -26 -4 -58 -2 -42 1 -60 12 -65 9 -5 15 -27 16 -56
1 -26 8 -50 15 -55 10 -6 8 -10 -9 -14 -20 -5 -21 -8 -8 -23 11 -13 11 -18 2
-21 -20 -7 -15 -21 9 -29 l21 -6 -23 -13 -23 -12 22 -15 c20 -14 21 -17 6 -32
-15 -15 -15 -16 7 -16 13 1 41 8 63 16 22 8 45 16 50 17 6 1 15 11 22 22 11
18 12 17 13 -12 0 -18 5 -43 11 -57 9 -20 7 -34 -15 -82 -22 -47 -27 -76 -31
-165 -3 -83 -1 -110 9 -119 23 -19 30 7 29 108 -2 72 3 110 23 174 32 108 32
126 -8 357 -6 35 -11 81 -11 102 0 22 -4 39 -9 39 -6 0 -7 -7 -4 -16 4 -10 1
-14 -6 -12 -16 6 -31 76 -23 107 4 15 1 27 -6 32 -10 6 -3 17 24 43 20 19 37
41 37 50 0 8 12 29 26 46 l27 31 -22 30 c-21 28 -21 34 -11 86 16 75 52 113
109 113 l41 0 0 40 c0 22 5 40 10 40 6 0 10 -17 10 -38 0 -37 2 -40 41 -51 61
-19 79 -42 79 -104 0 -48 -3 -55 -25 -65 -14 -6 -25 -18 -25 -27 0 -8 -5 -15
-10 -15 -7 0 -10 -19 -9 -45 2 -32 6 -42 14 -35 7 6 15 6 20 2 4 -4 3 3 -4 15
-6 13 -7 24 -2 27 5 4 12 0 14 -6 3 -8 6 -6 6 5 1 9 -6 17 -14 17 -8 0 -15 5
-15 11 0 5 5 7 12 3 7 -5 9 -2 5 8 -4 12 -1 14 14 11 22 -6 23 -22 8 -76 -7
-28 -15 -37 -25 -33 -8 3 -13 2 -10 -3 7 -11 -17 -21 -51 -21 -36 0 -93 37
-86 56 3 7 0 14 -6 14 -6 0 -11 9 -11 20 0 11 -6 20 -12 21 -7 0 -4 4 7 9 19
8 19 9 -2 9 -22 1 -31 -18 -15 -33 11 -12 9 -90 -3 -98 -9 -7 18 -13 40 -8 6
1 7 -2 3 -6 -4 -4 -2 -14 5 -22 9 -13 9 -14 0 -8 -7 4 -13 3 -13 -1 0 -5 14
-17 31 -27 31 -19 54 -60 43 -78 -4 -6 -9 -27 -11 -47 -2 -19 -9 -38 -15 -42
-13 -8 -12 -220 1 -266 5 -17 7 -49 4 -71 -3 -22 2 -63 11 -95 17 -58 22 -84
32 -152 l5 -40 -34 61 c-18 34 -43 74 -55 89 -12 15 -22 36 -22 46 0 16 -3 17
-25 7 -26 -12 -24 -34 2 -23 13 5 15 -2 10 -42 -3 -27 -11 -61 -18 -78 -7 -16
-11 -38 -10 -48 1 -9 -5 -20 -13 -23 -9 -3 -16 -10 -16 -16 0 -5 13 0 29 11
l28 20 19 -20 c16 -17 19 -37 19 -110 0 -49 2 -89 6 -89 3 0 2 -26 -1 -57 -5
-37 -3 -61 4 -65 7 -4 5 -13 -6 -25 -8 -10 -14 -27 -12 -38 1 -11 -2 -23 -9
-27 -9 -6 -9 -8 0 -8 18 0 11 -40 -7 -41 -11 0 -9 -4 8 -16 26 -18 28 -45 6
-67 -10 -10 -13 -24 -9 -37 8 -24 8 -202 1 -301 -4 -55 -2 -69 11 -76 9 -5 17
-26 19 -47 3 -32 -2 -43 -28 -68 l-31 -30 24 -18 24 -19 -41 0 c-22 0 -44 4
-50 10 -6 6 -38 2 -89 -11 -44 -12 -106 -23 -138 -25 -32 -2 -77 -9 -100 -16
-23 -6 -44 -12 -47 -13 -3 0 -34 -11 -70 -23 -36 -12 -117 -35 -181 -51 -107
-27 -306 -96 -346 -120 -43 -25 37 -10 101 19 36 17 139 48 228 70 90 23 205
52 256 65 52 14 168 37 258 51 l164 27 57 -37 c32 -20 105 -60 162 -88 57 -27
129 -65 160 -84 l56 -34 325 1 c260 1 318 3 290 13 -19 6 -53 23 -75 37 -22
14 -58 35 -80 46 -46 23 -248 93 -268 93 -8 0 -20 7 -27 15 -7 9 -29 15 -52
15 -25 0 -37 4 -33 10 9 15 212 4 305 -17 140 -30 323 -85 394 -118 39 -17
101 -46 137 -64 65 -31 119 -40 119 -21 0 6 -9 10 -20 10 -11 0 -23 6 -26 14
-3 8 -16 17 -30 20 -13 4 -24 11 -24 16 0 13 -105 64 -195 93 -84 27 -296 75
-330 75 -11 0 -56 8 -100 16 -44 9 -155 19 -248 22 l-167 7 -8 30 c-9 34 -18
41 -83 58 -115 31 -136 107 -79 285 17 53 32 128 36 176 5 65 12 90 30 115 22
29 24 43 27 167 2 74 0 140 -3 147 -15 23 1 48 33 51 68 7 76 96 36 383 -9 61
-17 86 -36 106 -16 17 -25 41 -28 70 -3 37 -1 40 7 22 7 -14 24 -25 44 -29 19
-3 31 -10 28 -15 -3 -5 0 -9 6 -9 6 0 8 -6 4 -12 -4 -7 2 -5 13 4 24 22 44 23
37 3 -4 -10 0 -15 16 -15 11 0 18 5 15 10 -3 6 -1 10 4 10 6 0 11 -7 11 -15 0
-8 9 -15 20 -15 11 0 20 -6 20 -12 0 -10 2 -10 8 -2 4 7 25 10 50 8 33 -3 42
0 42 12 0 8 5 12 11 9 6 -4 8 -13 5 -21 -4 -10 8 -12 62 -8 37 2 77 7 89 9 14
3 25 -1 31 -11 7 -12 16 -15 28 -10 18 7 18 8 0 22 -26 18 -17 18 29 -2 24
-10 51 -13 71 -10 22 5 34 2 36 -6 4 -10 8 -10 21 0 9 8 13 20 10 28 -3 8 0
14 6 14 6 0 9 6 7 13 -1 6 -1 9 1 5 9 -16 23 -7 23 15 -1 38 49 295 85 438 41
161 78 269 138 399 24 52 64 138 88 190 118 257 272 529 409 720 79 110 218
277 274 329 14 14 26 33 26 43 0 17 -47 18 -1280 18 -704 0 -1280 -2 -1280 -5
0 -2 23 -25 50 -51 27 -26 50 -52 50 -58 0 -7 17 -30 38 -52 89 -90 173 -341
158 -473 -14 -124 -66 -297 -103 -342 -7 -8 -13 -21 -13 -27 0 -22 -73 -117
-139 -179 -56 -53 -142 -105 -236 -144 -35 -15 -137 -31 -229 -36 -177 -9
-384 70 -519 199 -42 40 -77 77 -77 82 0 4 -11 22 -24 39 -32 42 -114 204
-120 236 -24 128 -29 283 -12 341 5 14 11 43 16 65 11 56 30 105 42 105 5 0 6
5 3 10 -9 15 95 166 155 227 28 28 50 53 50 57 0 3 -119 6 -265 6 l-265 0 0
-1142z m3354 916 c19 -18 21 -55 4 -72 -7 -7 -31 -12 -55 -12 -37 0 -43 3 -49
25 -8 33 1 54 28 65 34 13 55 12 72 -6z m-1588 -1530 c-3 -9 -6 -18 -6 -20 0
-3 -4 -3 -10 1 -11 7 -2 35 12 35 6 0 7 -7 4 -16z m495 -52 c12 -13 19 -102 9
-102 -6 0 -10 5 -10 10 0 6 -4 10 -9 10 -6 0 -8 -12 -7 -27 2 -16 4 -34 5 -40
0 -7 5 -13 10 -13 4 0 7 12 4 28 -3 27 -3 27 7 3 14 -33 9 -44 -22 -45 -24 -1
-27 3 -38 56 -8 43 -8 63 1 79 8 15 8 19 0 15 -6 -4 -11 -3 -11 3 0 5 -3 17
-6 26 -5 13 -1 15 27 10 19 -3 37 -9 40 -13z m-107 -2 c29 -11 38 -60 11 -60
-8 0 -15 5 -15 11 0 6 -7 9 -15 5 -8 -3 -19 3 -25 14 -21 40 -7 50 44 30z
m-365 -36 c-10 -23 -13 -25 -16 -11 -3 10 1 25 8 33 17 21 21 11 8 -22z m11
-64 c0 -5 -2 -10 -4 -10 -3 0 -8 5 -11 10 -3 6 -1 10 4 10 6 0 11 -4 11 -10z
m-23 -52 c-3 -8 -6 -5 -6 6 -1 11 2 17 5 13 3 -3 4 -12 1 -19z m403 5 c0 -15
-2 -15 -24 -7 -23 9 -20 23 4 21 11 -1 20 -7 20 -14z m-408 -85 c0 -13 1 -30
0 -38 0 -8 5 -18 11 -22 9 -6 9 -8 -1 -8 -8 0 -10 -8 -6 -25 4 -18 2 -25 -9
-25 -11 0 -15 15 -16 70 -1 42 3 70 9 70 5 0 11 -10 12 -22z m-1327 -98 c3 -5
-1 -10 -10 -10 -9 0 -13 5 -10 10 3 6 8 10 10 10 2 0 7 -4 10 -10z m2282 -32
c-3 -8 -6 -5 -6 6 -1 11 2 17 5 13 3 -3 4 -12 1 -19z m93 2 c0 -5 -4 -10 -10
-10 -5 0 -10 5 -10 10 0 6 5 10 10 10 6 0 10 -4 10 -10z m-2290 -10 c0 -5 -5
-10 -11 -10 -5 0 -7 5 -4 10 3 6 8 10 11 10 2 0 4 -4 4 -10z m1250 -10 c-6
-11 -13 -20 -15 -20 -3 0 -5 9 -5 20 0 11 7 20 15 20 13 0 14 -4 5 -20z m439
-58 c0 -13 -2 -12 -9 4 -5 12 -13 25 -19 29 -6 3 -16 16 -22 28 -7 15 -1 12
20 -11 17 -18 31 -40 30 -50z m-844 58 c3 -5 1 -10 -4 -10 -6 0 -11 5 -11 10
0 6 2 10 4 10 3 0 8 -4 11 -10z m-665 -10 c0 -5 -2 -10 -4 -10 -3 0 -8 5 -11
10 -3 6 -1 10 4 10 6 0 11 -4 11 -10z m926 -26 c-6 -16 -26 -10 -26 7 0 6 5 7
10 4 6 -3 10 2 11 12 0 11 3 13 6 5 3 -7 2 -20 -1 -28z m577 -255 c16 -22 17
-36 11 -113 -4 -47 -8 -85 -10 -84 -1 2 -10 46 -19 98 -9 52 -18 103 -21 114
-8 25 15 17 39 -15z m41 -150 c-3 -5 -9 -9 -15 -9 -11 0 -12 43 -2 54 9 9 25
-33 17 -45z"/>
<path d="M3985 2850 c3 -13 -2 -20 -13 -21 -11 0 -12 -2 -4 -6 6 -2 10 -9 6
-14 -3 -5 2 -9 10 -9 18 0 23 55 7 65 -6 3 -8 -4 -6 -15z"/>
<path d="M3970 2780 c12 -8 12 -10 -5 -11 l-20 0 20 -9 c17 -7 17 -9 3 -9 -10
-1 -18 -8 -18 -16 0 -9 -7 -18 -15 -21 -8 -4 -18 -24 -21 -45 -5 -30 -11 -39
-27 -39 -15 0 -17 -3 -8 -14 9 -11 9 -15 -1 -19 -10 -4 -10 -8 2 -17 12 -8 9
-9 -15 -5 -16 3 -24 2 -17 -1 14 -7 16 -34 2 -34 -5 0 -10 -8 -10 -18 0 -10
-3 -22 -7 -26 -5 -4 -8 -11 -9 -14 0 -4 -4 -15 -7 -24 -4 -10 -10 -26 -13 -35
-4 -10 -6 -37 -6 -61 1 -23 -3 -40 -8 -37 -4 3 -6 -4 -3 -15 3 -12 -2 -29 -13
-41 -16 -17 -16 -22 -4 -29 13 -8 13 -10 0 -10 -12 0 -13 -2 -1 -9 11 -7 11
-9 0 -14 -12 -5 -11 -8 1 -17 12 -9 11 -10 -7 -5 -19 5 -23 2 -23 -15 0 -17 4
-21 18 -16 14 5 13 3 -3 -10 -11 -8 -19 -22 -17 -30 2 -8 -2 -14 -8 -14 -5 0
-9 -3 -9 -7 6 -38 -3 -173 -11 -168 -6 3 -7 -1 -4 -9 3 -9 14 -16 23 -16 11
-1 9 -5 -8 -14 -23 -13 -23 -14 -5 -24 10 -6 14 -12 8 -12 -12 0 -12 -29 1
-49 9 -15 9 -80 0 -90 -3 -3 -10 1 -15 9 -7 10 -8 3 -5 -23 6 -43 -10 -81 -28
-71 -9 5 -8 3 1 -7 6 -7 12 -18 12 -24 0 -5 -4 -4 -9 4 -14 22 -30 3 -25 -32
4 -29 3 -30 -10 -14 -18 23 -31 5 -16 -23 8 -14 8 -20 0 -20 -6 0 -8 -4 -5
-10 3 -5 -2 -10 -12 -10 -35 0 40 -39 87 -45 25 -4 90 -15 145 -25 55 -10 112
-20 128 -23 l27 -4 0 698 0 699 -22 0 c-19 0 -20 -2 -8 -10z"/>
<path d="M1944 2236 c-1 -17 2 -23 12 -19 16 6 16 6 8 27 -9 23 -19 19 -20 -8z"/>
<path d="M2960 1814 c0 -8 5 -12 10 -9 6 3 10 10 10 16 0 5 -4 9 -10 9 -5 0
-10 -7 -10 -16z"/>
<path d="M3700 1760 c0 -5 7 -7 15 -4 8 4 15 8 15 10 0 2 -7 4 -15 4 -8 0 -15
-4 -15 -10z"/>
<path d="M445 1751 c-2 -5 4 -11 15 -14 11 -3 20 -2 20 3 0 12 -28 21 -35 11z"/>
<path d="M3670 1669 c0 -5 5 -7 10 -4 6 3 10 8 10 11 0 2 -4 4 -10 4 -5 0 -10
-5 -10 -11z"/>
<path d="M1920 1447 c0 -8 7 -20 15 -27 11 -9 15 -10 15 -1 0 7 -7 19 -15 27
-13 13 -15 13 -15 1z"/>
<path d="M1782 1260 c0 -14 2 -19 5 -12 2 6 2 18 0 25 -3 6 -5 1 -5 -13z"/>
<path d="M3672 1055 c-7 -9 -8 -15 -2 -15 5 0 10 -7 10 -15 0 -11 11 -15 38
-16 20 0 80 -3 132 -5 52 -3 106 -5 119 -5 30 1 42 11 14 11 -12 0 -23 8 -26
19 -3 11 -13 20 -23 21 -11 0 -62 2 -114 4 -52 1 -104 5 -115 9 -12 3 -25 0
-33 -8z"/>
<path d="M225 740 c-3 -5 -1 -10 4 -10 6 0 11 5 11 10 0 6 -2 10 -4 10 -3 0
-8 -4 -11 -10z"/>
<path d="M48 713 c7 -3 16 -2 19 1 4 3 -2 6 -13 5 -11 0 -14 -3 -6 -6z"/>
</g>
</svg>
