<svg height="1706.667" viewBox="0 0 1280 1280" width="1706.667" xmlns="http://www.w3.org/2000/svg"><path d="m0 640v640h1280v-1280h-1280zm1159-364.5v144.5l-128.2.2-128.3.3v82l128.8.3 128.7.2v292.8c0 161.1.3 310.5.7 332l.6 39.2h-102.3v-184h-511v-109l216.6-.2 216.6-.3-35.2-38.3-35.3-38.2h-297.7v-109h339l10.3 10.7c14.4 15.1 35.6 37.8 68.1 73 15.3 16.7 28 30.3 28.2 30.3s.4-42.5.4-94.5v-94.5h-510v-479h102v369h150v-370h102v177h154v-179h102zm-651 376v517.5h-386v-1035h386zm446 463v54.5h-407v-109h407z"/><path d="m223.7 244.7c-.4.3-.7 84-.7 186v185.3h145v110l-72.2.2-72.3.3-.3 166.2-.2 166.3h184v-815h-91.3c-50.3 0-91.7.3-92 .7z"/></svg>