<svg height="384" viewBox="0 0 432 288" width="576" xmlns="http://www.w3.org/2000/svg" xmlns:xlink="http://www.w3.org/1999/xlink"><defs><style>*{stroke-linecap:butt;stroke-linejoin:round}</style></defs><g id="figure_1"><path d="M0 288h432V0H0z" fill="#fff" id="patch_1"/><g id="axes_1"><path d="M54 252h334.8V34.6H54z" fill="#fff" id="patch_2"/><g id="matplotlib.axis_1"><g id="xtick_1"><g id="line2d_1"><defs><path d="M0 0v3.5" id="mb3c56c6db4" stroke="#000" stroke-width=".8"/></defs><use x="69.2" xlink:href="#mb3c56c6db4" y="252" stroke="#000" stroke-width=".8"/></g><g id="text_1"><defs><path d="M12.4 8.3h16.1v55.6L11 60.4v9l17.4 3.5h9.9V8.3h16V0H12.5z" id="DejaVuSans-49"/><path d="M31.8 66.4q-7.6 0-11.5-7.5-3.8-7.5-3.8-22.5t3.8-22.5q3.9-7.5 11.5-7.5 7.7 0 11.5 7.5T47 36.4q0 15-3.8 22.5t-11.5 7.5zm0 7.8q12.2 0 18.7-9.7T57 36.4Q57 18 50.5 8.3 44-1.4 31.8-1.4 19.5-1.4 13 8.3q-6.5 9.7-6.5 28 0 18.5 6.5 28.2 6.4 9.7 18.7 9.7z" id="DejaVuSans-48"/></defs><g transform="matrix(.1 0 0 -.1 60.4 266.6)"><use transform="translate(0 .7)" xlink:href="#DejaVuSans-49"/><use transform="translate(63.6 .7)" xlink:href="#DejaVuSans-48"/><use transform="matrix(.7 0 0 .7 128.2 39)" xlink:href="#DejaVuSans-49"/></g></g></g><g id="xtick_2"><use x="170.7" xlink:href="#mb3c56c6db4" y="252" stroke="#000" stroke-width=".8" id="line2d_2"/><g id="text_2"><defs><path d="M19.2 8.3h34.4V0H7.3v8.3l15.3 15.6q9.7 9.8 12.2 12.6 4.7 5.3 6.6 9 2 3.7 2 7.3 0 5.8-4.2 9.5-4 3.6-10.6 3.6-4.6 0-9.8-1.6-5.1-1.6-11-4.9v10q6 2.4 11.1 3.6 5.2 1.2 9.5 1.2 11.4 0 18-5.7 6.8-5.6 6.8-15 0-4.6-1.7-8.6-1.6-4-6-9.5l-7.9-8.2L19.2 8.3z" id="DejaVuSans-50"/></defs><g transform="matrix(.1 0 0 -.1 161.9 266.6)"><use transform="translate(0 .8)" xlink:href="#DejaVuSans-49"/><use transform="translate(63.6 .8)" xlink:href="#DejaVuSans-48"/><use transform="matrix(.7 0 0 .7 128.2 39)" xlink:href="#DejaVuSans-50"/></g></g></g><g id="xtick_3"><use x="272.1" xlink:href="#mb3c56c6db4" y="252" stroke="#000" stroke-width=".8" id="line2d_3"/><g id="text_3"><defs><path d="M40.6 39.3q7-1.5 11-6.3t4-11.8q0-10.8-7.4-16.7-7.4-6-21.1-6-4.6 0-9.4 1-4.9.9-10 2.7v9.5q4-2.4 8.9-3.6Q21.5 7 26.8 7q9.3 0 14.1 3.6 4.9 3.7 4.9 10.7 0 6.4-4.5 10Q36.8 35 28.7 35h-8.5V43h9q7.2 0 11 3 3.9 2.8 3.9 8.3 0 5.6-4 8.6t-11.4 3q-4 0-8.7-.9-4.6-.8-10.2-2.7v8.8q5.6 1.6 10.5 2.3 5 .8 9.3.8 11.2 0 17.8-5 6.5-5.2 6.5-13.9 0-6-3.5-10.2-3.4-4.2-9.8-5.8z" id="DejaVuSans-51"/></defs><g transform="matrix(.1 0 0 -.1 263.3 266.6)"><use transform="translate(0 .8)" xlink:href="#DejaVuSans-49"/><use transform="translate(63.6 .8)" xlink:href="#DejaVuSans-48"/><use transform="matrix(.7 0 0 .7 128.2 39)" xlink:href="#DejaVuSans-51"/></g></g></g><g id="xtick_4"><use x="373.6" xlink:href="#mb3c56c6db4" y="252" stroke="#000" stroke-width=".8" id="line2d_4"/><g id="text_4"><defs><path d="M37.8 64.3l-25-39h25zM35.2 73h12.4V25.4H58v-8.2H47.6V0h-9.8v17.2h-33v9.5z" id="DejaVuSans-52"/></defs><g transform="matrix(.1 0 0 -.1 364.8 266.6)"><use transform="translate(0 .7)" xlink:href="#DejaVuSans-49"/><use transform="translate(63.6 .7)" xlink:href="#DejaVuSans-48"/><use transform="matrix(.7 0 0 .7 128.2 39)" xlink:href="#DejaVuSans-52"/></g></g></g><g id="xtick_5"><g id="line2d_5"><defs><path d="M0 0v2" id="m6ecfa45a30" stroke="#000" stroke-width=".6"/></defs><use x="59.4" xlink:href="#m6ecfa45a30" y="252" stroke="#000" stroke-width=".6"/></g></g><g id="xtick_6"><use x="64.6" xlink:href="#m6ecfa45a30" y="252" stroke="#000" stroke-width=".6" id="line2d_6"/></g><g id="xtick_7"><use x="99.8" xlink:href="#m6ecfa45a30" y="252" stroke="#000" stroke-width=".6" id="line2d_7"/></g><g id="xtick_8"><use x="117.6" xlink:href="#m6ecfa45a30" y="252" stroke="#000" stroke-width=".6" id="line2d_8"/></g><g id="xtick_9"><use x="130.3" xlink:href="#m6ecfa45a30" y="252" stroke="#000" stroke-width=".6" id="line2d_9"/></g><g id="xtick_10"><use x="140.1" xlink:href="#m6ecfa45a30" y="252" stroke="#000" stroke-width=".6" id="line2d_10"/></g><g id="xtick_11"><use x="148.2" xlink:href="#m6ecfa45a30" y="252" stroke="#000" stroke-width=".6" id="line2d_11"/></g><g id="xtick_12"><use x="155" xlink:href="#m6ecfa45a30" y="252" stroke="#000" stroke-width=".6" id="line2d_12"/></g><g id="xtick_13"><use x="160.8" xlink:href="#m6ecfa45a30" y="252" stroke="#000" stroke-width=".6" id="line2d_13"/></g><g id="xtick_14"><use x="166" xlink:href="#m6ecfa45a30" y="252" stroke="#000" stroke-width=".6" id="line2d_14"/></g><g id="xtick_15"><use x="201.2" xlink:href="#m6ecfa45a30" y="252" stroke="#000" stroke-width=".6" id="line2d_15"/></g><g id="xtick_16"><use x="219.1" xlink:href="#m6ecfa45a30" y="252" stroke="#000" stroke-width=".6" id="line2d_16"/></g><g id="xtick_17"><use x="231.8" xlink:href="#m6ecfa45a30" y="252" stroke="#000" stroke-width=".6" id="line2d_17"/></g><g id="xtick_18"><use x="241.6" xlink:href="#m6ecfa45a30" y="252" stroke="#000" stroke-width=".6" id="line2d_18"/></g><g id="xtick_19"><use x="249.6" xlink:href="#m6ecfa45a30" y="252" stroke="#000" stroke-width=".6" id="line2d_19"/></g><g id="xtick_20"><use x="256.4" xlink:href="#m6ecfa45a30" y="252" stroke="#000" stroke-width=".6" id="line2d_20"/></g><g id="xtick_21"><use x="262.3" xlink:href="#m6ecfa45a30" y="252" stroke="#000" stroke-width=".6" id="line2d_21"/></g><g id="xtick_22"><use x="267.5" xlink:href="#m6ecfa45a30" y="252" stroke="#000" stroke-width=".6" id="line2d_22"/></g><g id="xtick_23"><use x="302.7" xlink:href="#m6ecfa45a30" y="252" stroke="#000" stroke-width=".6" id="line2d_23"/></g><g id="xtick_24"><use x="320.5" xlink:href="#m6ecfa45a30" y="252" stroke="#000" stroke-width=".6" id="line2d_24"/></g><g id="xtick_25"><use x="333.2" xlink:href="#m6ecfa45a30" y="252" stroke="#000" stroke-width=".6" id="line2d_25"/></g><g id="xtick_26"><use x="343" xlink:href="#m6ecfa45a30" y="252" stroke="#000" stroke-width=".6" id="line2d_26"/></g><g id="xtick_27"><use x="351.1" xlink:href="#m6ecfa45a30" y="252" stroke="#000" stroke-width=".6" id="line2d_27"/></g><g id="xtick_28"><use x="357.9" xlink:href="#m6ecfa45a30" y="252" stroke="#000" stroke-width=".6" id="line2d_28"/></g><g id="xtick_29"><use x="363.7" xlink:href="#m6ecfa45a30" y="252" stroke="#000" stroke-width=".6" id="line2d_29"/></g><g id="xtick_30"><use x="368.9" xlink:href="#m6ecfa45a30" y="252" stroke="#000" stroke-width=".6" id="line2d_30"/></g><g id="text_5"><defs><path d="M16.9 73h13.3l20.1-62.6L62.5 73h9.6L58 0H44.6l-20 62.9L12.2 0H2.7z" id="DejaVuSans-Oblique-78"/></defs><use transform="matrix(.1 0 0 -.1 217.7 280.3)" xlink:href="#DejaVuSans-Oblique-78"/></g></g><g id="matplotlib.axis_2"><g id="ytick_1"><g id="line2d_31"><defs><path d="M0 0h-3.5" id="m919fbf12cb" stroke="#000" stroke-width=".8"/></defs><use x="54" xlink:href="#m919fbf12cb" y="232.9" stroke="#000" stroke-width=".8"/></g><g id="text_6"><defs><path d="M10.6 35.5h62.6v-8.3H10.6z" id="DejaVuSans-8722"/></defs><g transform="matrix(.1 0 0 -.1 23.5 236.7)"><use transform="translate(0 .7)" xlink:href="#DejaVuSans-49"/><use transform="translate(63.6 .7)" xlink:href="#DejaVuSans-48"/><use transform="matrix(.7 0 0 .7 128.2 39)" xlink:href="#DejaVuSans-8722"/><use transform="matrix(.7 0 0 .7 186.9 39)" xlink:href="#DejaVuSans-52"/></g></g></g><g id="ytick_2"><use x="54" xlink:href="#m919fbf12cb" y="200.4" stroke="#000" stroke-width=".8" id="line2d_32"/><g transform="matrix(.1 0 0 -.1 23.5 204.2)" id="text_7"><use transform="translate(0 .8)" xlink:href="#DejaVuSans-49"/><use transform="translate(63.6 .8)" xlink:href="#DejaVuSans-48"/><use transform="matrix(.7 0 0 .7 128.2 39)" xlink:href="#DejaVuSans-8722"/><use transform="matrix(.7 0 0 .7 186.9 39)" xlink:href="#DejaVuSans-51"/></g></g><g id="ytick_3"><use x="54" xlink:href="#m919fbf12cb" y="167.9" stroke="#000" stroke-width=".8" id="line2d_33"/><g transform="matrix(.1 0 0 -.1 23.5 171.7)" id="text_8"><use transform="translate(0 .8)" xlink:href="#DejaVuSans-49"/><use transform="translate(63.6 .8)" xlink:href="#DejaVuSans-48"/><use transform="matrix(.7 0 0 .7 128.2 39)" xlink:href="#DejaVuSans-8722"/><use transform="matrix(.7 0 0 .7 186.9 39)" xlink:href="#DejaVuSans-50"/></g></g><g id="ytick_4"><use x="54" xlink:href="#m919fbf12cb" y="135.4" stroke="#000" stroke-width=".8" id="line2d_34"/><g transform="matrix(.1 0 0 -.1 23.5 139.2)" id="text_9"><use transform="translate(0 .7)" xlink:href="#DejaVuSans-49"/><use transform="translate(63.6 .7)" xlink:href="#DejaVuSans-48"/><use transform="matrix(.7 0 0 .7 128.2 39)" xlink:href="#DejaVuSans-8722"/><use transform="matrix(.7 0 0 .7 186.9 39)" xlink:href="#DejaVuSans-49"/></g></g><g id="ytick_5"><use x="54" xlink:href="#m919fbf12cb" y="102.9" stroke="#000" stroke-width=".8" id="line2d_35"/><g transform="matrix(.1 0 0 -.1 29.4 106.7)" id="text_10"><use transform="translate(0 .8)" xlink:href="#DejaVuSans-49"/><use transform="translate(63.6 .8)" xlink:href="#DejaVuSans-48"/><use transform="matrix(.7 0 0 .7 128.2 39)" xlink:href="#DejaVuSans-48"/></g></g><g id="ytick_6"><use x="54" xlink:href="#m919fbf12cb" y="70.4" stroke="#000" stroke-width=".8" id="line2d_36"/><g transform="matrix(.1 0 0 -.1 29.4 74.2)" id="text_11"><use transform="translate(0 .7)" xlink:href="#DejaVuSans-49"/><use transform="translate(63.6 .7)" xlink:href="#DejaVuSans-48"/><use transform="matrix(.7 0 0 .7 128.2 39)" xlink:href="#DejaVuSans-49"/></g></g><g id="ytick_7"><use x="54" xlink:href="#m919fbf12cb" y="37.9" stroke="#000" stroke-width=".8" id="line2d_37"/><g transform="matrix(.1 0 0 -.1 29.4 41.7)" id="text_12"><use transform="translate(0 .8)" xlink:href="#DejaVuSans-49"/><use transform="translate(63.6 .8)" xlink:href="#DejaVuSans-48"/><use transform="matrix(.7 0 0 .7 128.2 39)" xlink:href="#DejaVuSans-50"/></g></g><g id="ytick_8"><g id="line2d_38"><defs><path d="M0 0h-2" id="md74b89662e" stroke="#000" stroke-width=".6"/></defs><use x="54" xlink:href="#md74b89662e" y="249.9" stroke="#000" stroke-width=".6"/></g></g><g id="ytick_9"><use x="54" xlink:href="#md74b89662e" y="245.9" stroke="#000" stroke-width=".6" id="line2d_39"/></g><g id="ytick_10"><use x="54" xlink:href="#md74b89662e" y="242.7" stroke="#000" stroke-width=".6" id="line2d_40"/></g><g id="ytick_11"><use x="54" xlink:href="#md74b89662e" y="240.1" stroke="#000" stroke-width=".6" id="line2d_41"/></g><g id="ytick_12"><use x="54" xlink:href="#md74b89662e" y="238" stroke="#000" stroke-width=".6" id="line2d_42"/></g><g id="ytick_13"><use x="54" xlink:href="#md74b89662e" y="236.1" stroke="#000" stroke-width=".6" id="line2d_43"/></g><g id="ytick_14"><use x="54" xlink:href="#md74b89662e" y="234.4" stroke="#000" stroke-width=".6" id="line2d_44"/></g><g id="ytick_15"><use x="54" xlink:href="#md74b89662e" y="223.2" stroke="#000" stroke-width=".6" id="line2d_45"/></g><g id="ytick_16"><use x="54" xlink:href="#md74b89662e" y="217.4" stroke="#000" stroke-width=".6" id="line2d_46"/></g><g id="ytick_17"><use x="54" xlink:href="#md74b89662e" y="213.4" stroke="#000" stroke-width=".6" id="line2d_47"/></g><g id="ytick_18"><use x="54" xlink:href="#md74b89662e" y="210.2" stroke="#000" stroke-width=".6" id="line2d_48"/></g><g id="ytick_19"><use x="54" xlink:href="#md74b89662e" y="207.6" stroke="#000" stroke-width=".6" id="line2d_49"/></g><g id="ytick_20"><use x="54" xlink:href="#md74b89662e" y="205.5" stroke="#000" stroke-width=".6" id="line2d_50"/></g><g id="ytick_21"><use x="54" xlink:href="#md74b89662e" y="203.6" stroke="#000" stroke-width=".6" id="line2d_51"/></g><g id="ytick_22"><use x="54" xlink:href="#md74b89662e" y="201.9" stroke="#000" stroke-width=".6" id="line2d_52"/></g><g id="ytick_23"><use x="54" xlink:href="#md74b89662e" y="190.6" stroke="#000" stroke-width=".6" id="line2d_53"/></g><g id="ytick_24"><use x="54" xlink:href="#md74b89662e" y="184.9" stroke="#000" stroke-width=".6" id="line2d_54"/></g><g id="ytick_25"><use x="54" xlink:href="#md74b89662e" y="180.9" stroke="#000" stroke-width=".6" id="line2d_55"/></g><g id="ytick_26"><use x="54" xlink:href="#md74b89662e" y="177.7" stroke="#000" stroke-width=".6" id="line2d_56"/></g><g id="ytick_27"><use x="54" xlink:href="#md74b89662e" y="175.1" stroke="#000" stroke-width=".6" id="line2d_57"/></g><g id="ytick_28"><use x="54" xlink:href="#md74b89662e" y="173" stroke="#000" stroke-width=".6" id="line2d_58"/></g><g id="ytick_29"><use x="54" xlink:href="#md74b89662e" y="171.1" stroke="#000" stroke-width=".6" id="line2d_59"/></g><g id="ytick_30"><use x="54" xlink:href="#md74b89662e" y="169.4" stroke="#000" stroke-width=".6" id="line2d_60"/></g><g id="ytick_31"><use x="54" xlink:href="#md74b89662e" y="158.1" stroke="#000" stroke-width=".6" id="line2d_61"/></g><g id="ytick_32"><use x="54" xlink:href="#md74b89662e" y="152.4" stroke="#000" stroke-width=".6" id="line2d_62"/></g><g id="ytick_33"><use x="54" xlink:href="#md74b89662e" y="148.4" stroke="#000" stroke-width=".6" id="line2d_63"/></g><g id="ytick_34"><use x="54" xlink:href="#md74b89662e" y="145.2" stroke="#000" stroke-width=".6" id="line2d_64"/></g><g id="ytick_35"><use x="54" xlink:href="#md74b89662e" y="142.6" stroke="#000" stroke-width=".6" id="line2d_65"/></g><g id="ytick_36"><use x="54" xlink:href="#md74b89662e" y="140.5" stroke="#000" stroke-width=".6" id="line2d_66"/></g><g id="ytick_37"><use x="54" xlink:href="#md74b89662e" y="138.6" stroke="#000" stroke-width=".6" id="line2d_67"/></g><g id="ytick_38"><use x="54" xlink:href="#md74b89662e" y="136.9" stroke="#000" stroke-width=".6" id="line2d_68"/></g><g id="ytick_39"><use x="54" xlink:href="#md74b89662e" y="125.6" stroke="#000" stroke-width=".6" id="line2d_69"/></g><g id="ytick_40"><use x="54" xlink:href="#md74b89662e" y="119.9" stroke="#000" stroke-width=".6" id="line2d_70"/></g><g id="ytick_41"><use x="54" xlink:href="#md74b89662e" y="115.8" stroke="#000" stroke-width=".6" id="line2d_71"/></g><g id="ytick_42"><use x="54" xlink:href="#md74b89662e" y="112.7" stroke="#000" stroke-width=".6" id="line2d_72"/></g><g id="ytick_43"><use x="54" xlink:href="#md74b89662e" y="110.1" stroke="#000" stroke-width=".6" id="line2d_73"/></g><g id="ytick_44"><use x="54" xlink:href="#md74b89662e" y="107.9" stroke="#000" stroke-width=".6" id="line2d_74"/></g><g id="ytick_45"><use x="54" xlink:href="#md74b89662e" y="106.1" stroke="#000" stroke-width=".6" id="line2d_75"/></g><g id="ytick_46"><use x="54" xlink:href="#md74b89662e" y="104.4" stroke="#000" stroke-width=".6" id="line2d_76"/></g><g id="ytick_47"><use x="54" xlink:href="#md74b89662e" y="93.1" stroke="#000" stroke-width=".6" id="line2d_77"/></g><g id="ytick_48"><use x="54" xlink:href="#md74b89662e" y="87.4" stroke="#000" stroke-width=".6" id="line2d_78"/></g><g id="ytick_49"><use x="54" xlink:href="#md74b89662e" y="83.3" stroke="#000" stroke-width=".6" id="line2d_79"/></g><g id="ytick_50"><use x="54" xlink:href="#md74b89662e" y="80.2" stroke="#000" stroke-width=".6" id="line2d_80"/></g><g id="ytick_51"><use x="54" xlink:href="#md74b89662e" y="77.6" stroke="#000" stroke-width=".6" id="line2d_81"/></g><g id="ytick_52"><use x="54" xlink:href="#md74b89662e" y="75.4" stroke="#000" stroke-width=".6" id="line2d_82"/></g><g id="ytick_53"><use x="54" xlink:href="#md74b89662e" y="73.6" stroke="#000" stroke-width=".6" id="line2d_83"/></g><g id="ytick_54"><use x="54" xlink:href="#md74b89662e" y="71.9" stroke="#000" stroke-width=".6" id="line2d_84"/></g><g id="ytick_55"><use x="54" xlink:href="#md74b89662e" y="60.6" stroke="#000" stroke-width=".6" id="line2d_85"/></g><g id="ytick_56"><use x="54" xlink:href="#md74b89662e" y="54.9" stroke="#000" stroke-width=".6" id="line2d_86"/></g><g id="ytick_57"><use x="54" xlink:href="#md74b89662e" y="50.8" stroke="#000" stroke-width=".6" id="line2d_87"/></g><g id="ytick_58"><use x="54" xlink:href="#md74b89662e" y="47.7" stroke="#000" stroke-width=".6" id="line2d_88"/></g><g id="ytick_59"><use x="54" xlink:href="#md74b89662e" y="45.1" stroke="#000" stroke-width=".6" id="line2d_89"/></g><g id="ytick_60"><use x="54" xlink:href="#md74b89662e" y="42.9" stroke="#000" stroke-width=".6" id="line2d_90"/></g><g id="ytick_61"><use x="54" xlink:href="#md74b89662e" y="41.1" stroke="#000" stroke-width=".6" id="line2d_91"/></g><g id="ytick_62"><use x="54" xlink:href="#md74b89662e" y="39.4" stroke="#000" stroke-width=".6" id="line2d_92"/></g><g id="text_13"><defs><path d="M-.3 73h61.7v-8.4H35.5V0h-10v64.6H-.2z" id="DejaVuSans-84"/><path d="M9.4 54.7h9V0h-9zm0 21.3h9V64.6h-9z" id="DejaVuSans-105"/><path d="M52 44.2q3.4 6 8 9Q64.9 56 71 56q8.6 0 13.3-6 4.6-6 4.6-17V0h-9v32.7q0 7.9-2.8 11.7-2.8 3.8-8.5 3.8-7 0-11-4.7-4-4.6-4-12.6V0h-9.1v32.7q0 8-2.8 11.7-2.8 3.8-8.6 3.8-6.9 0-11-4.7-4-4.6-4-12.6V0h-9v54.7h9v-8.5q3 5 7.4 7.4Q29.8 56 35.7 56q6 0 10.1-3 4.2-3 6.2-8.8z" id="DejaVuSans-109"/><path d="M56.2 29.6v-4.4H14.9q.6-9.3 5.6-14.1 5-4.9 14-4.9 5 0 10 1.3 4.8 1.2 9.6 3.8V2.8q-4.8-2-10-3.1-5-1.1-10.2-1.1-13.1 0-20.7 7.6-7.7 7.6-7.7 20.6 0 13.4 7.3 21.3Q20 56 32.3 56q11 0 17.5-7.1 6.4-7.1 6.4-19.3zm-9 2.6q0 7.4-4.1 11.8-4 4.4-10.7 4.4-7.5 0-12-4.3-4.5-4.2-5.2-12z" id="DejaVuSans-101"/><path d="M53.5 70.5V61q-5.6 2.7-10.6 4-5 1.3-9.6 1.3-8 0-12.4-3.1t-4.4-8.9q0-4.8 3-7.3 2.8-2.5 11-4l5.9-1.2q11-2.1 16.3-7.4 5.2-5.3 5.2-14.2 0-10.6-7.1-16Q43.7-1.5 30-1.5q-5.2 0-11 1.1Q13 1 6.9 3.3v10.2q6-3.4 11.8-5.1Q24.4 6.6 30 6.6q8.4 0 13 3.3t4.6 9.5q0 5.4-3.3 8.4t-10.8 4.5l-6 1.2q-11 2.2-16 6.9t-5 13q0 9.7 7 15.3 6.7 5.5 18.7 5.5 5.1 0 10.4-1 5.4-.8 11-2.7z" id="DejaVuSans-83"/><path d="M18.1 8.2v-29h-9v75.5h9v-8.3q2.9 4.9 7.2 7.2Q29.6 56 35.6 56q10 0 16.2-8Q58 40.3 58 27.4q0-12.9-6.2-20.8-6.2-8-16.2-8-6 0-10.3 2.5Q21 3.3 18 8.2zm30.6 19.1q0 9.9-4 15.5-4.2 5.7-11.3 5.7-7.1 0-11.2-5.7-4-5.6-4-15.5 0-10 4-15.6t11.2-5.6q7.1 0 11.2 5.7 4 5.6 4 15.5z" id="DejaVuSans-112"/><path d="M54.9 33V0h-9v32.7q0 7.8-3 11.6-3 3.9-9.1 3.9-7.3 0-11.5-4.7Q18.1 39 18.1 31V0h-9v54.7h9v-8.5q3.2 5 7.6 7.4Q30.1 56 35.8 56q9.4 0 14.2-5.8Q55 44.3 55 33z" id="DejaVuSans-110"/><path d="M18.3 70.2V54.7h18.5v-7H18.3V18q0-6.7 1.8-8.6 1.9-1.9 7.5-1.9h9.2V0h-9.2Q17.2 0 13.2 3.9T9.2 18v29.7H2.8v7h6.6v15.5z" id="DejaVuSans-116"/><path d="M31 75.9q-6.5-11.2-9.7-22.2-3.2-11-3.2-22.3T21.3 9Q24.5-2 31-13.2h-7.8q-7.3 11.5-11 22.6-3.6 11-3.6 22 0 10.9 3.6 22 3.6 11 11 22.5z" id="DejaVuSans-40"/><path d="M44.3 53v-8.4q-3.8 2-8 2.9-4 1-8.4 1-6.7 0-10-2-3.4-2.1-3.4-6.2 0-3.1 2.4-5 2.4-1.7 9.6-3.3l3-.7q9.7-2 13.7-5.8 4-3.7 4-10.4 0-7.6-6-12-6-4.5-16.6-4.5-4.4 0-9.1.8-4.8.9-10 2.6v9.3q5-2.6 9.7-4 4.9-1.2 9.6-1.2 6.4 0 9.8 2.2 3.4 2.2 3.4 6.1 0 3.7-2.5 5.6-2.4 2-10.8 3.8l-3.1.7q-8.4 1.8-12 5.4-3.8 3.6-3.8 10 0 7.7 5.5 11.9Q16.7 56 26.8 56q5 0 9.4-.7 4.4-.8 8-2.2z" id="DejaVuSans-115"/><path d="M48.8 52.6v-8.4Q45 46.3 41 47.3q-3.8 1-7.7 1-8.7 0-13.6-5.5Q15 37.3 15 27.3t4.8-15.6q4.9-5.5 13.6-5.5 4 0 7.7 1 3.9 1.1 7.7 3.2V2.1Q45 .3 41-.5q-4-1-8.6-1-12.3 0-19.6 7.8-7.3 7.8-7.3 21 0 13.4 7.4 21Q20.2 56 33 56q4.2 0 8.1-.9 4-.8 7.7-2.5z" id="DejaVuSans-99"/><path d="M30.6 48.4q-7.2 0-11.4-5.6Q15 37 15 27.3t4.2-15.5q4.1-5.6 11.4-5.6 7.2 0 11.4 5.7 4.2 5.6 4.2 15.4 0 9.7-4.2 15.4-4.2 5.7-11.4 5.7zm0 7.6q11.7 0 18.4-7.6 6.7-7.6 6.7-21.1 0-13.4-6.7-21-6.7-7.7-18.4-7.7-11.8 0-18.4 7.6Q5.5 14 5.5 27.3q0 13.5 6.7 21Q18.8 56 30.6 56z" id="DejaVuSans-111"/><path d="M45.4 46.4V76h9V0h-9v8.2Q42.6 3.3 38.3 1q-4.4-2.4-10.4-2.4-10 0-16.2 7.9-6.2 8-6.2 20.8 0 12.9 6.2 20.8Q18 56 28 56q6 0 10.4-2.4 4.3-2.3 7.1-7.2zM14.8 27.3q0-10 4-15.6Q23 6.2 30.2 6.2q7.1 0 11.2 5.7 4.1 5.6 4.1 15.5t-4.1 15.5q-4.1 5.7-11.2 5.7t-11.2-5.7q-4.1-5.6-4.1-15.5z" id="DejaVuSans-100"/><path d="M8 75.9h7.8q7.3-11.5 11-22.6 3.6-11 3.6-22 0-10.8-3.6-22-3.7-11-11-22.5H8Q14.5-2 17.7 9.1q3.2 11 3.2 22.3t-3.2 22.3q-3.2 11-9.7 22.2z" id="DejaVuSans-41"/></defs><g transform="matrix(0 -.1 -.1 0 17.4 197.7)"><use xlink:href="#DejaVuSans-84"/><use x="61" xlink:href="#DejaVuSans-105"/><use x="88.8" xlink:href="#DejaVuSans-109"/><use x="186.2" xlink:href="#DejaVuSans-101"/><use x="247.8" xlink:href="#DejaVuSans-32"/><use x="279.5" xlink:href="#DejaVuSans-83"/><use x="343" xlink:href="#DejaVuSans-112"/><use x="406.5" xlink:href="#DejaVuSans-101"/><use x="468" xlink:href="#DejaVuSans-110"/><use x="531.4" xlink:href="#DejaVuSans-116"/><use x="570.6" xlink:href="#DejaVuSans-32"/><use x="602.4" xlink:href="#DejaVuSans-40"/><use x="641.4" xlink:href="#DejaVuSans-115"/><use x="693.5" xlink:href="#DejaVuSans-101"/><use x="755" xlink:href="#DejaVuSans-99"/><use x="810" xlink:href="#DejaVuSans-111"/><use x="871.2" xlink:href="#DejaVuSans-110"/><use x="934.6" xlink:href="#DejaVuSans-100"/><use x="998" xlink:href="#DejaVuSans-115"/><use x="1050.1" xlink:href="#DejaVuSans-41"/></g></g></g><g id="line2d_93"><path clip-path="url(#p9455468bd3)" d="M69.2 215.5l32.7-11 34.6-12.3 34.2-12.7 33.7-17.4 33.9-11.6L272 134l33.8-18.3 33.9-20 33.8-21" fill="none" stroke="#1f77b4" stroke-linecap="square" stroke-width="1.5"/><defs><path d="M0 3a3 3 0 100-6 3 3 0 000 6z" id="m231a3fdbe0" stroke="#1f77b4"/></defs><g clip-path="url(#p9455468bd3)" fill="#1f77b4" stroke="#1f77b4"><use x="69.2" xlink:href="#m231a3fdbe0" y="215.5"/><use x="101.9" xlink:href="#m231a3fdbe0" y="204.5"/><use x="136.5" xlink:href="#m231a3fdbe0" y="192.2"/><use x="170.7" xlink:href="#m231a3fdbe0" y="179.5"/><use x="204.4" xlink:href="#m231a3fdbe0" y="162.1"/><use x="238.3" xlink:href="#m231a3fdbe0" y="150.5"/><use x="272.1" xlink:href="#m231a3fdbe0" y="134"/><use x="305.9" xlink:href="#m231a3fdbe0" y="115.7"/><use x="339.8" xlink:href="#m231a3fdbe0" y="95.7"/><use x="373.6" xlink:href="#m231a3fdbe0" y="74.7"/></g></g><g id="line2d_94"><path clip-path="url(#p9455468bd3)" d="M69.2 242.1l32.7-9 34.6-17.3 34.2-21.2 33.7-20.8 33.9-23.4 33.8-21.6 33.8-21.2 33.9-26.2 33.8-37" fill="none" stroke="#ff7f0e" stroke-linecap="square" stroke-width="1.5"/><defs><path d="M0 3a3 3 0 100-6 3 3 0 000 6z" id="m5d0b0c2134" stroke="#ff7f0e"/></defs><g clip-path="url(#p9455468bd3)" fill="#ff7f0e" stroke="#ff7f0e"><use x="69.2" xlink:href="#m5d0b0c2134" y="242.1"/><use x="101.9" xlink:href="#m5d0b0c2134" y="233.1"/><use x="136.5" xlink:href="#m5d0b0c2134" y="215.8"/><use x="170.7" xlink:href="#m5d0b0c2134" y="194.6"/><use x="204.4" xlink:href="#m5d0b0c2134" y="173.8"/><use x="238.3" xlink:href="#m5d0b0c2134" y="150.4"/><use x="272.1" xlink:href="#m5d0b0c2134" y="128.8"/><use x="305.9" xlink:href="#m5d0b0c2134" y="107.6"/><use x="339.8" xlink:href="#m5d0b0c2134" y="81.4"/><use x="373.6" xlink:href="#m5d0b0c2134" y="44.4"/></g></g><path d="M54 252V34.6" fill="none" stroke="#000" stroke-linecap="square" stroke-width=".8" id="patch_3"/><path d="M388.8 252V34.6" fill="none" stroke="#000" stroke-linecap="square" stroke-width=".8" id="patch_4"/><path d="M54 252h334.8" fill="none" stroke="#000" stroke-linecap="square" stroke-width=".8" id="patch_5"/><path d="M54 34.6h334.8" fill="none" stroke="#000" stroke-linecap="square" stroke-width=".8" id="patch_6"/><g id="legend_1"><path d="M61 72.5h144.6q2 0 2-2v-29q0-2-2-2H61q-2 0-2 2v29q0 2 2 2z" fill="#fff" opacity=".8" stroke="#ccc" id="patch_7"/><path d="M63 47.7h20" fill="none" stroke="#1f77b4" stroke-linecap="square" stroke-width="1.5" id="line2d_95"/><use x="73" xlink:href="#m231a3fdbe0" y="47.7" fill="#1f77b4" stroke="#1f77b4" id="line2d_96"/><g id="text_14"><defs><path d="M51-16.6v-7H-1v7z" id="DejaVuSans-95"/><path d="M34.3 27.5q-11 0-15.1-2.5-4.2-2.5-4.2-8.5 0-4.8 3.1-7.6 3.2-2.8 8.6-2.8 7.5 0 12 5.3t4.5 14v2zm17.9 3.7V0h-9v8.3q-3-5-7.7-7.3Q31-1.4 24.3-1.4 16-1.4 11 3.3 6 8 6 15.9q0 9.2 6.2 14 6.2 4.6 18.4 4.6h12.6v1q0 6.1-4 9.5-4.1 3.4-11.5 3.4-4.7 0-9.2-1.1-4.4-1.2-8.5-3.4v8.3q5 2 9.6 2.8 4.6 1 9 1 11.9 0 17.7-6.2 5.9-6.1 5.9-18.6z" id="DejaVuSans-97"/><path d="M3 54.7h9.5l17-45.9 17.2 45.9h9.5L35.7 0H23.5z" id="DejaVuSans-118"/></defs><g transform="matrix(.1 0 0 -.1 91 51.2)"><use xlink:href="#DejaVuSans-112"/><use x="63.5" xlink:href="#DejaVuSans-100"/><use x="127" xlink:href="#DejaVuSans-105"/><use x="154.7" xlink:href="#DejaVuSans-115"/><use x="206.8" xlink:href="#DejaVuSans-116"/><use x="246" xlink:href="#DejaVuSans-95"/><use x="296" xlink:href="#DejaVuSans-110"/><use x="359.4" xlink:href="#DejaVuSans-112"/><use x="422.9" xlink:href="#DejaVuSans-95"/><use x="472.9" xlink:href="#DejaVuSans-110"/><use x="536.3" xlink:href="#DejaVuSans-97"/><use x="597.6" xlink:href="#DejaVuSans-105"/><use x="625.3" xlink:href="#DejaVuSans-118"/><use x="684.5" xlink:href="#DejaVuSans-101"/></g></g><path d="M63 62.6h20" fill="none" stroke="#ff7f0e" stroke-linecap="square" stroke-width="1.5" id="line2d_97"/><use x="73" xlink:href="#m5d0b0c2134" y="62.6" fill="#ff7f0e" stroke="#ff7f0e" id="line2d_98"/><g id="text_15"><defs><path d="M48.7 27.3q0 9.9-4 15.5-4.2 5.7-11.3 5.7-7.1 0-11.2-5.7-4-5.6-4-15.5 0-10 4-15.6t11.2-5.6q7.1 0 11.2 5.7 4 5.6 4 15.5zM18 46.3q2.9 5 7.2 7.3Q29.6 56 35.6 56q10 0 16.2-8Q58 40.3 58 27.4q0-12.9-6.2-20.8-6.2-8-16.2-8-6 0-10.3 2.5Q21 3.3 18 8.2V0h-9v76h9z" id="DejaVuSans-98"/><path d="M41.1 46.3q-1.5.9-3.3 1.3-1.8.4-4 .4-7.5 0-11.6-5-4-5-4-14.2V0H9v54.7h9v-8.5q2.9 5 7.4 7.4Q30 56 36.5 56l2-.1 2.6-.4z" id="DejaVuSans-114"/><path d="M45.4 28q0 9.8-4 15.1-4 5.4-11.3 5.4-7.2 0-11.3-5.4-4-5.4-4-15.1t4-15.1q4-5.4 11.3-5.4 7.3 0 11.3 5.4 4 5.4 4 15zm9-21.2q0-14-6.2-20.8-6.2-6.8-19-6.8-4.7 0-9 .7-4.1.7-8 2.2v8.7q3.9-2.1 7.7-3.1 3.9-1 7.9-1 8.8 0 13.2 4.5 4.4 4.6 4.4 14v4.4q-2.8-4.8-7.1-7.2Q33.9 0 27.9 0q-10 0-16.2 7.7Q5.5 15.3 5.5 28q0 12.7 6.2 20.3Q17.8 56 27.9 56q6 0 10.4-2.4 4.3-2.4 7.1-7.2v8.3h9z" id="DejaVuSans-103"/></defs><g transform="matrix(.1 0 0 -.1 91 66.1)"><use xlink:href="#DejaVuSans-112"/><use x="63.5" xlink:href="#DejaVuSans-100"/><use x="127" xlink:href="#DejaVuSans-105"/><use x="154.7" xlink:href="#DejaVuSans-115"/><use x="206.8" xlink:href="#DejaVuSans-116"/><use x="246" xlink:href="#DejaVuSans-95"/><use x="296" xlink:href="#DejaVuSans-110"/><use x="359.4" xlink:href="#DejaVuSans-112"/><use x="422.9" xlink:href="#DejaVuSans-95"/><use x="472.9" xlink:href="#DejaVuSans-98"/><use x="536.4" xlink:href="#DejaVuSans-114"/><use x="577.5" xlink:href="#DejaVuSans-111"/><use x="638.6" xlink:href="#DejaVuSans-97"/><use x="699.9" xlink:href="#DejaVuSans-100"/><use x="763.4" xlink:href="#DejaVuSans-99"/><use x="818.4" xlink:href="#DejaVuSans-97"/><use x="879.7" xlink:href="#DejaVuSans-115"/><use x="931.8" xlink:href="#DejaVuSans-116"/><use x="971" xlink:href="#DejaVuSans-105"/><use x="998.7" xlink:href="#DejaVuSans-110"/><use x="1062.1" xlink:href="#DejaVuSans-103"/></g></g></g></g></g><defs><clipPath id="p9455468bd3"><path d="M54 34.6h334.8V252H54z"/></clipPath></defs></svg>