<svg height="384" viewBox="0 0 432 288" width="576" xmlns="http://www.w3.org/2000/svg" xmlns:xlink="http://www.w3.org/1999/xlink"><defs><style>*{stroke-linecap:butt;stroke-linejoin:round}</style></defs><g id="figure_1"><path d="M0 288h432V0H0z" fill="#fff" id="patch_1"/><g id="axes_1"><path d="M54 252h334.8V34.6H54z" fill="#fff" id="patch_2"/><g id="matplotlib.axis_1"><g id="xtick_1"><g id="line2d_1"><defs><path d="M0 0v3.5" id="mb2bcdd6862" stroke="#000" stroke-width=".8"/></defs><use x="68.9" xlink:href="#mb2bcdd6862" y="252" stroke="#000" stroke-width=".8"/></g><g id="text_1"><defs><path d="M31.8 66.4q-7.6 0-11.5-7.5-3.8-7.5-3.8-22.5t3.8-22.5q3.9-7.5 11.5-7.5 7.7 0 11.5 7.5T47 36.4q0 15-3.8 22.5t-11.5 7.5zm0 7.8q12.2 0 18.7-9.7T57 36.4Q57 18 50.5 8.3 44-1.4 31.8-1.4 19.5-1.4 13 8.3q-6.5 9.7-6.5 28 0 18.5 6.5 28.2 6.4 9.7 18.7 9.7z" id="DejaVuSans-48"/></defs><use xlink:href="#DejaVuSans-48" transform="matrix(.1 0 0 -.1 65.7 266.6)"/></g></g><g id="xtick_2"><use x="129.8" xlink:href="#mb2bcdd6862" y="252" stroke="#000" stroke-width=".8" id="line2d_2"/><g id="text_2"><defs><path d="M19.2 8.3h34.4V0H7.3v8.3l15.3 15.6q9.7 9.8 12.2 12.6 4.7 5.3 6.6 9 2 3.7 2 7.3 0 5.8-4.2 9.5-4 3.6-10.6 3.6-4.6 0-9.8-1.6-5.1-1.6-11-4.9v10q6 2.4 11.1 3.6 5.2 1.2 9.5 1.2 11.4 0 18-5.7 6.8-5.6 6.8-15 0-4.6-1.7-8.6-1.6-4-6-9.5l-7.9-8.2L19.2 8.3z" id="DejaVuSans-50"/></defs><g transform="matrix(.1 0 0 -.1 117.1 266.6)"><use xlink:href="#DejaVuSans-50"/><use x="63.6" xlink:href="#DejaVuSans-48"/><use x="127.2" xlink:href="#DejaVuSans-48"/><use x="190.9" xlink:href="#DejaVuSans-48"/></g></g></g><g id="xtick_3"><use x="190.8" xlink:href="#mb2bcdd6862" y="252" stroke="#000" stroke-width=".8" id="line2d_3"/><g id="text_3"><defs><path d="M37.8 64.3l-25-39h25zM35.2 73h12.4V25.4H58v-8.2H47.6V0h-9.8v17.2h-33v9.5z" id="DejaVuSans-52"/></defs><g transform="matrix(.1 0 0 -.1 178 266.6)"><use xlink:href="#DejaVuSans-52"/><use x="63.6" xlink:href="#DejaVuSans-48"/><use x="127.2" xlink:href="#DejaVuSans-48"/><use x="190.9" xlink:href="#DejaVuSans-48"/></g></g></g><g id="xtick_4"><use x="251.7" xlink:href="#mb2bcdd6862" y="252" stroke="#000" stroke-width=".8" id="line2d_4"/><g id="text_4"><defs><path d="M33 40.4q-6.6 0-10.5-4.6-3.9-4.5-3.9-12.4T22.5 11Q26.4 6.4 33 6.4q6.7 0 10.5 4.6 4 4.5 4 12.4t-4 12.4q-3.8 4.6-10.5 4.6zm19.6 30.9v-9Q48.9 64.1 45 65q-3.8 1-7.5 1-9.8 0-15-6.7-5-6.6-5.8-19.9 2.9 4.3 7.2 6.5 4.4 2.3 9.6 2.3 11 0 17.4-6.7 6.3-6.6 6.3-18.1 0-11.2-6.6-18Q44-1.4 33-1.4q-12.6 0-19.3 9.7Q7 18 7 36.3 7 53.8 15.2 64q8.2 10.3 22 10.3 3.7 0 7.5-.7 3.8-.8 7.9-2.2z" id="DejaVuSans-54"/></defs><g transform="matrix(.1 0 0 -.1 239 266.6)"><use xlink:href="#DejaVuSans-54"/><use x="63.6" xlink:href="#DejaVuSans-48"/><use x="127.2" xlink:href="#DejaVuSans-48"/><use x="190.9" xlink:href="#DejaVuSans-48"/></g></g></g><g id="xtick_5"><use x="312.6" xlink:href="#mb2bcdd6862" y="252" stroke="#000" stroke-width=".8" id="line2d_5"/><g id="text_5"><defs><path d="M31.8 34.6q-7 0-11-3.7-4.1-3.8-4.1-10.4 0-6.6 4-10.3 4-3.8 11-3.8 7.1 0 11.2 3.8 4 3.8 4 10.3 0 6.6-4 10.4-4 3.7-11.1 3.7zm-9.9 4.2q-6.3 1.6-9.9 6Q8.5 49 8.5 55.2q0 8.8 6.2 13.8 6.3 5.1 17 5.1 11 0 17.2-5Q55 64 55 55.2q0-6.2-3.6-10.6-3.5-4.3-9.8-5.9 7.1-1.6 11.1-6.5 4-4.8 4-11.8 0-10.6-6.5-16.3-6.5-5.6-18.5-5.6T13.2 4.2Q6.8 10 6.8 20.5q0 7 4 11.8 4 4.9 11.1 6.5zm-3.6 15.6q0-5.7 3.5-8.8 3.6-3.2 10-3.2 6.3 0 10 3.2 3.5 3.1 3.5 8.8 0 5.7-3.6 8.8-3.6 3.2-10 3.2-6.3 0-9.9-3.2-3.5-3.1-3.5-8.8z" id="DejaVuSans-56"/></defs><g transform="matrix(.1 0 0 -.1 300 266.6)"><use xlink:href="#DejaVuSans-56"/><use x="63.6" xlink:href="#DejaVuSans-48"/><use x="127.2" xlink:href="#DejaVuSans-48"/><use x="190.9" xlink:href="#DejaVuSans-48"/></g></g></g><g id="xtick_6"><use x="373.6" xlink:href="#mb2bcdd6862" y="252" stroke="#000" stroke-width=".8" id="line2d_6"/><g id="text_6"><defs><path d="M12.4 8.3h16.1v55.6L11 60.4v9l17.4 3.5h9.9V8.3h16V0H12.5z" id="DejaVuSans-49"/></defs><g transform="matrix(.1 0 0 -.1 357.7 266.6)"><use xlink:href="#DejaVuSans-49"/><use x="63.6" xlink:href="#DejaVuSans-48"/><use x="127.2" xlink:href="#DejaVuSans-48"/><use x="190.9" xlink:href="#DejaVuSans-48"/><use x="254.5" xlink:href="#DejaVuSans-48"/></g></g></g><g id="text_7"><defs><path d="M16.9 73h13.3l20.1-62.6L62.5 73h9.6L58 0H44.6l-20 62.9L12.2 0H2.7z" id="DejaVuSans-Oblique-78"/></defs><use transform="matrix(.1 0 0 -.1 217.7 280.3)" xlink:href="#DejaVuSans-Oblique-78"/></g></g><g id="matplotlib.axis_2"><g id="ytick_1"><g id="line2d_7"><defs><path d="M0 0h-3.5" id="m655e9a8b32" stroke="#000" stroke-width=".8"/></defs><use x="54" xlink:href="#m655e9a8b32" y="242.1" stroke="#000" stroke-width=".8"/></g><use xlink:href="#DejaVuSans-48" transform="matrix(.1 0 0 -.1 40.6 246)" id="text_8"/></g><g id="ytick_2"><use x="54" xlink:href="#m655e9a8b32" y="213" stroke="#000" stroke-width=".8" id="line2d_8"/><g transform="matrix(.1 0 0 -.1 28 216.8)" id="text_9"><use xlink:href="#DejaVuSans-50"/><use x="63.6" xlink:href="#DejaVuSans-48"/><use x="127.2" xlink:href="#DejaVuSans-48"/></g></g><g id="ytick_3"><use x="54" xlink:href="#m655e9a8b32" y="183.9" stroke="#000" stroke-width=".8" id="line2d_9"/><g transform="matrix(.1 0 0 -.1 28 187.7)" id="text_10"><use xlink:href="#DejaVuSans-52"/><use x="63.6" xlink:href="#DejaVuSans-48"/><use x="127.2" xlink:href="#DejaVuSans-48"/></g></g><g id="ytick_4"><use x="54" xlink:href="#m655e9a8b32" y="154.7" stroke="#000" stroke-width=".8" id="line2d_10"/><g transform="matrix(.1 0 0 -.1 28 158.5)" id="text_11"><use xlink:href="#DejaVuSans-54"/><use x="63.6" xlink:href="#DejaVuSans-48"/><use x="127.2" xlink:href="#DejaVuSans-48"/></g></g><g id="ytick_5"><use x="54" xlink:href="#m655e9a8b32" y="125.6" stroke="#000" stroke-width=".8" id="line2d_11"/><g transform="matrix(.1 0 0 -.1 28 129.4)" id="text_12"><use xlink:href="#DejaVuSans-56"/><use x="63.6" xlink:href="#DejaVuSans-48"/><use x="127.2" xlink:href="#DejaVuSans-48"/></g></g><g id="ytick_6"><use x="54" xlink:href="#m655e9a8b32" y="96.5" stroke="#000" stroke-width=".8" id="line2d_12"/><g transform="matrix(.1 0 0 -.1 21.6 100.3)" id="text_13"><use xlink:href="#DejaVuSans-49"/><use x="63.6" xlink:href="#DejaVuSans-48"/><use x="127.2" xlink:href="#DejaVuSans-48"/><use x="190.9" xlink:href="#DejaVuSans-48"/></g></g><g id="ytick_7"><use x="54" xlink:href="#m655e9a8b32" y="67.3" stroke="#000" stroke-width=".8" id="line2d_13"/><g transform="matrix(.1 0 0 -.1 21.6 71.1)" id="text_14"><use xlink:href="#DejaVuSans-49"/><use x="63.6" xlink:href="#DejaVuSans-50"/><use x="127.2" xlink:href="#DejaVuSans-48"/><use x="190.9" xlink:href="#DejaVuSans-48"/></g></g><g id="ytick_8"><use x="54" xlink:href="#m655e9a8b32" y="38.2" stroke="#000" stroke-width=".8" id="line2d_14"/><g transform="matrix(.1 0 0 -.1 21.6 42)" id="text_15"><use xlink:href="#DejaVuSans-49"/><use x="63.6" xlink:href="#DejaVuSans-52"/><use x="127.2" xlink:href="#DejaVuSans-48"/><use x="190.9" xlink:href="#DejaVuSans-48"/></g></g><g id="text_16"><defs><path d="M9.8 73h14.7l18.6-49.7 18.7 49.6h14.7V0H67v64L48 14H38L19.5 64V0H9.8z" id="DejaVuSans-77"/><path d="M56.2 29.6v-4.4H14.9q.6-9.3 5.6-14.1 5-4.9 14-4.9 5 0 10 1.3 4.8 1.2 9.6 3.8V2.8q-4.8-2-10-3.1-5-1.1-10.2-1.1-13.1 0-20.7 7.6-7.7 7.6-7.7 20.6 0 13.4 7.3 21.3Q20 56 32.3 56q11 0 17.5-7.1 6.4-7.1 6.4-19.3zm-9 2.6q0 7.4-4.1 11.8-4 4.4-10.7 4.4-7.5 0-12-4.3-4.5-4.2-5.2-12z" id="DejaVuSans-101"/><path d="M52 44.2q3.4 6 8 9Q64.9 56 71 56q8.6 0 13.3-6 4.6-6 4.6-17V0h-9v32.7q0 7.9-2.8 11.7-2.8 3.8-8.5 3.8-7 0-11-4.7-4-4.6-4-12.6V0h-9.1v32.7q0 8-2.8 11.7-2.8 3.8-8.6 3.8-6.9 0-11-4.7-4-4.6-4-12.6V0h-9v54.7h9v-8.5q3 5 7.4 7.4Q29.8 56 35.7 56q6 0 10.1-3 4.2-3 6.2-8.8z" id="DejaVuSans-109"/><path d="M30.6 48.4q-7.2 0-11.4-5.6Q15 37 15 27.3t4.2-15.5q4.1-5.6 11.4-5.6 7.2 0 11.4 5.7 4.2 5.6 4.2 15.4 0 9.7-4.2 15.4-4.2 5.7-11.4 5.7zm0 7.6q11.7 0 18.4-7.6 6.7-7.6 6.7-21.1 0-13.4-6.7-21-6.7-7.7-18.4-7.7-11.8 0-18.4 7.6Q5.5 14 5.5 27.3q0 13.5 6.7 21Q18.8 56 30.6 56z" id="DejaVuSans-111"/><path d="M41.1 46.3q-1.5.9-3.3 1.3-1.8.4-4 .4-7.5 0-11.6-5-4-5-4-14.2V0H9v54.7h9v-8.5q2.9 5 7.4 7.4Q30 56 36.5 56l2-.1 2.6-.4z" id="DejaVuSans-114"/><path d="M32.2-5q-3.8-9.8-7.5-12.8-3.6-3-9.6-3H7.9v7.5h5.3q3.7 0 5.7 1.8 2.1 1.7 4.6 8.3l1.6 4L3 54.8h9.5l17-42.8 17.2 42.8h9.5z" id="DejaVuSans-121"/><path d="M8.7 73h10V28.5q0-11.7 4.1-16.9 4.3-5.1 13.8-5.1t13.7 5.1q4.3 5.2 4.3 17v44.2h9.9V27.4q0-14.3-7-21.5-7.1-7.3-20.9-7.3-13.8 0-20.9 7.3-7 7.2-7 21.5z" id="DejaVuSans-85"/><path d="M44.3 53v-8.4q-3.8 2-8 2.9-4 1-8.4 1-6.7 0-10-2-3.4-2.1-3.4-6.2 0-3.1 2.4-5 2.4-1.7 9.6-3.3l3-.7q9.7-2 13.7-5.8 4-3.7 4-10.4 0-7.6-6-12-6-4.5-16.6-4.5-4.4 0-9.1.8-4.8.9-10 2.6v9.3q5-2.6 9.7-4 4.9-1.2 9.6-1.2 6.4 0 9.8 2.2 3.4 2.2 3.4 6.1 0 3.7-2.5 5.6-2.4 2-10.8 3.8l-3.1.7q-8.4 1.8-12 5.4-3.8 3.6-3.8 10 0 7.7 5.5 11.9Q16.7 56 26.8 56q5 0 9.4-.7 4.4-.8 8-2.2z" id="DejaVuSans-115"/><path d="M34.3 27.5q-11 0-15.1-2.5-4.2-2.5-4.2-8.5 0-4.8 3.1-7.6 3.2-2.8 8.6-2.8 7.5 0 12 5.3t4.5 14v2zm17.9 3.7V0h-9v8.3q-3-5-7.7-7.3Q31-1.4 24.3-1.4 16-1.4 11 3.3 6 8 6 15.9q0 9.2 6.2 14 6.2 4.6 18.4 4.6h12.6v1q0 6.1-4 9.5-4.1 3.4-11.5 3.4-4.7 0-9.2-1.1-4.4-1.2-8.5-3.4v8.3q5 2 9.6 2.8 4.6 1 9 1 11.9 0 17.7-6.2 5.9-6.1 5.9-18.6z" id="DejaVuSans-97"/><path d="M45.4 28q0 9.8-4 15.1-4 5.4-11.3 5.4-7.2 0-11.3-5.4-4-5.4-4-15.1t4-15.1q4-5.4 11.3-5.4 7.3 0 11.3 5.4 4 5.4 4 15zm9-21.2q0-14-6.2-20.8-6.2-6.8-19-6.8-4.7 0-9 .7-4.1.7-8 2.2v8.7q3.9-2.1 7.7-3.1 3.9-1 7.9-1 8.8 0 13.2 4.5 4.4 4.6 4.4 14v4.4q-2.8-4.8-7.1-7.2Q33.9 0 27.9 0q-10 0-16.2 7.7Q5.5 15.3 5.5 28q0 12.7 6.2 20.3Q17.8 56 27.9 56q6 0 10.4-2.4 4.3-2.4 7.1-7.2v8.3h9z" id="DejaVuSans-103"/><path d="M31 75.9q-6.5-11.2-9.7-22.2-3.2-11-3.2-22.3T21.3 9Q24.5-2 31-13.2h-7.8q-7.3 11.5-11 22.6-3.6 11-3.6 22 0 10.9 3.6 22 3.6 11 11 22.5z" id="DejaVuSans-40"/><path d="M9.4 54.7h9V0h-9zm0 21.3h9V64.6h-9z" id="DejaVuSans-105"/><path d="M19.7 34.8V8.1h15.8q8 0 11.8 3.3 3.8 3.3 3.8 10 0 7-3.8 10.2-3.8 3.2-11.8 3.2zm0 30v-22h14.6q7.2 0 10.7 2.7 3.6 2.8 3.6 8.3 0 5.5-3.6 8.3-3.5 2.7-10.7 2.7zm-9.9 8.1H35q11.3 0 17.4-4.7 6.1-4.7 6.1-13.3 0-6.7-3.1-10.7-3.1-4-9.2-4.9 7.3-1.5 11.3-6.5 4-5 4-12.4 0-9.8-6.6-15Q48.3 0 35.9 0H10z" id="DejaVuSans-66"/><path d="M8 75.9h7.8q7.3-11.5 11-22.6 3.6-11 3.6-22 0-10.8-3.6-22-3.7-11-11-22.5H8Q14.5-2 17.7 9.1q3.2 11 3.2 22.3t-3.2 22.3q-3.2 11-9.7 22.2z" id="DejaVuSans-41"/></defs><g transform="matrix(0 -.1 -.1 0 15.5 195.4)"><use xlink:href="#DejaVuSans-77"/><use x="86.3" xlink:href="#DejaVuSans-101"/><use x="147.8" xlink:href="#DejaVuSans-109"/><use x="245.2" xlink:href="#DejaVuSans-111"/><use x="306.4" xlink:href="#DejaVuSans-114"/><use x="347.5" xlink:href="#DejaVuSans-121"/><use x="406.7" xlink:href="#DejaVuSans-32"/><use x="438.5" xlink:href="#DejaVuSans-85"/><use x="511.7" xlink:href="#DejaVuSans-115"/><use x="563.8" xlink:href="#DejaVuSans-97"/><use x="625" xlink:href="#DejaVuSans-103"/><use x="688.5" xlink:href="#DejaVuSans-101"/><use x="750" xlink:href="#DejaVuSans-32"/><use x="781.8" xlink:href="#DejaVuSans-40"/><use x="820.8" xlink:href="#DejaVuSans-77"/><use x="907.1" xlink:href="#DejaVuSans-105"/><use x="934.9" xlink:href="#DejaVuSans-66"/><use x="1003.5" xlink:href="#DejaVuSans-41"/></g></g></g><g id="line2d_15"><path clip-path="url(#p368f950a17)" d="M69.2 242.1h6.3l7.6-.1 16.3-.5 35.1-2 75.8-9.5 163.3-43.7" fill="none" stroke="#1f77b4" stroke-linecap="square" stroke-width="1.5"/><defs><path d="M0 3a3 3 0 100-6 3 3 0 000 6z" id="m32fb4d7d94" stroke="#1f77b4"/></defs><g clip-path="url(#p368f950a17)" fill="#1f77b4" stroke="#1f77b4"><use x="69.2" xlink:href="#m32fb4d7d94" y="242.1"/><use x="69.6" xlink:href="#m32fb4d7d94" y="242.1"/><use x="70.3" xlink:href="#m32fb4d7d94" y="242.1"/><use x="72" xlink:href="#m32fb4d7d94" y="242.1"/><use x="75.5" xlink:href="#m32fb4d7d94" y="242.1"/><use x="83.1" xlink:href="#m32fb4d7d94" y="242"/><use x="99.4" xlink:href="#m32fb4d7d94" y="241.5"/><use x="134.5" xlink:href="#m32fb4d7d94" y="239.4"/><use x="210.3" xlink:href="#m32fb4d7d94" y="230"/><use x="373.6" xlink:href="#m32fb4d7d94" y="186.3"/></g></g><g id="line2d_16"><path clip-path="url(#p368f950a17)" d="M69.2 242.1h1.1l1.7-.1 3.5-.5 7.6-2.1 16.3-9.6 35.1-44.5 75.8-38.5L373.6 44.4" fill="none" stroke="#ff7f0e" stroke-linecap="square" stroke-width="1.5"/><defs><path d="M0 3a3 3 0 100-6 3 3 0 000 6z" id="mefc7318d01" stroke="#ff7f0e"/></defs><g clip-path="url(#p368f950a17)" fill="#ff7f0e" stroke="#ff7f0e"><use x="69.2" xlink:href="#mefc7318d01" y="242.1"/><use x="69.6" xlink:href="#mefc7318d01" y="242.1"/><use x="70.3" xlink:href="#mefc7318d01" y="242.1"/><use x="72" xlink:href="#mefc7318d01" y="242"/><use x="75.5" xlink:href="#mefc7318d01" y="241.5"/><use x="83.1" xlink:href="#mefc7318d01" y="239.4"/><use x="99.4" xlink:href="#mefc7318d01" y="229.8"/><use x="134.5" xlink:href="#mefc7318d01" y="185.3"/><use x="210.3" xlink:href="#mefc7318d01" y="146.8"/><use x="373.6" xlink:href="#mefc7318d01" y="44.4"/></g></g><path d="M54 252V34.6" fill="none" stroke="#000" stroke-linecap="square" stroke-width=".8" id="patch_3"/><path d="M388.8 252V34.6" fill="none" stroke="#000" stroke-linecap="square" stroke-width=".8" id="patch_4"/><path d="M54 252h334.8" fill="none" stroke="#000" stroke-linecap="square" stroke-width=".8" id="patch_5"/><path d="M54 34.6h334.8" fill="none" stroke="#000" stroke-linecap="square" stroke-width=".8" id="patch_6"/><g id="legend_1"><path d="M61 72.5h144.6q2 0 2-2v-29q0-2-2-2H61q-2 0-2 2v29q0 2 2 2z" fill="#fff" opacity=".8" stroke="#ccc" id="patch_7"/><path d="M63 47.7h20" fill="none" stroke="#1f77b4" stroke-linecap="square" stroke-width="1.5" id="line2d_17"/><use x="73" xlink:href="#m32fb4d7d94" y="47.7" fill="#1f77b4" stroke="#1f77b4" id="line2d_18"/><g id="text_17"><defs><path d="M18.1 8.2v-29h-9v75.5h9v-8.3q2.9 4.9 7.2 7.2Q29.6 56 35.6 56q10 0 16.2-8Q58 40.3 58 27.4q0-12.9-6.2-20.8-6.2-8-16.2-8-6 0-10.3 2.5Q21 3.3 18 8.2zm30.6 19.1q0 9.9-4 15.5-4.2 5.7-11.3 5.7-7.1 0-11.2-5.7-4-5.6-4-15.5 0-10 4-15.6t11.2-5.6q7.1 0 11.2 5.7 4 5.6 4 15.5z" id="DejaVuSans-112"/><path d="M45.4 46.4V76h9V0h-9v8.2Q42.6 3.3 38.3 1q-4.4-2.4-10.4-2.4-10 0-16.2 7.9-6.2 8-6.2 20.8 0 12.9 6.2 20.8Q18 56 28 56q6 0 10.4-2.4 4.3-2.3 7.1-7.2zM14.8 27.3q0-10 4-15.6Q23 6.2 30.2 6.2q7.1 0 11.2 5.7 4.1 5.6 4.1 15.5t-4.1 15.5q-4.1 5.7-11.2 5.7t-11.2-5.7q-4.1-5.6-4.1-15.5z" id="DejaVuSans-100"/><path d="M18.3 70.2V54.7h18.5v-7H18.3V18q0-6.7 1.8-8.6 1.9-1.9 7.5-1.9h9.2V0h-9.2Q17.2 0 13.2 3.9T9.2 18v29.7H2.8v7h6.6v15.5z" id="DejaVuSans-116"/><path d="M51-16.6v-7H-1v7z" id="DejaVuSans-95"/><path d="M54.9 33V0h-9v32.7q0 7.8-3 11.6-3 3.9-9.1 3.9-7.3 0-11.5-4.7Q18.1 39 18.1 31V0h-9v54.7h9v-8.5q3.2 5 7.6 7.4Q30.1 56 35.8 56q9.4 0 14.2-5.8Q55 44.3 55 33z" id="DejaVuSans-110"/><path d="M3 54.7h9.5l17-45.9 17.2 45.9h9.5L35.7 0H23.5z" id="DejaVuSans-118"/></defs><g transform="matrix(.1 0 0 -.1 91 51.2)"><use xlink:href="#DejaVuSans-112"/><use x="63.5" xlink:href="#DejaVuSans-100"/><use x="127" xlink:href="#DejaVuSans-105"/><use x="154.7" xlink:href="#DejaVuSans-115"/><use x="206.8" xlink:href="#DejaVuSans-116"/><use x="246" xlink:href="#DejaVuSans-95"/><use x="296" xlink:href="#DejaVuSans-110"/><use x="359.4" xlink:href="#DejaVuSans-112"/><use x="422.9" xlink:href="#DejaVuSans-95"/><use x="472.9" xlink:href="#DejaVuSans-110"/><use x="536.3" xlink:href="#DejaVuSans-97"/><use x="597.6" xlink:href="#DejaVuSans-105"/><use x="625.3" xlink:href="#DejaVuSans-118"/><use x="684.5" xlink:href="#DejaVuSans-101"/></g></g><path d="M63 62.6h20" fill="none" stroke="#ff7f0e" stroke-linecap="square" stroke-width="1.5" id="line2d_19"/><use x="73" xlink:href="#mefc7318d01" y="62.6" fill="#ff7f0e" stroke="#ff7f0e" id="line2d_20"/><g id="text_18"><defs><path d="M48.7 27.3q0 9.9-4 15.5-4.2 5.7-11.3 5.7-7.1 0-11.2-5.7-4-5.6-4-15.5 0-10 4-15.6t11.2-5.6q7.1 0 11.2 5.7 4 5.6 4 15.5zM18 46.3q2.9 5 7.2 7.3Q29.6 56 35.6 56q10 0 16.2-8Q58 40.3 58 27.4q0-12.9-6.2-20.8-6.2-8-16.2-8-6 0-10.3 2.5Q21 3.3 18 8.2V0h-9v76h9z" id="DejaVuSans-98"/><path d="M48.8 52.6v-8.4Q45 46.3 41 47.3q-3.8 1-7.7 1-8.7 0-13.6-5.5Q15 37.3 15 27.3t4.8-15.6q4.9-5.5 13.6-5.5 4 0 7.7 1 3.9 1.1 7.7 3.2V2.1Q45 .3 41-.5q-4-1-8.6-1-12.3 0-19.6 7.8-7.3 7.8-7.3 21 0 13.4 7.4 21Q20.2 56 33 56q4.2 0 8.1-.9 4-.8 7.7-2.5z" id="DejaVuSans-99"/></defs><g transform="matrix(.1 0 0 -.1 91 66.1)"><use xlink:href="#DejaVuSans-112"/><use x="63.5" xlink:href="#DejaVuSans-100"/><use x="127" xlink:href="#DejaVuSans-105"/><use x="154.7" xlink:href="#DejaVuSans-115"/><use x="206.8" xlink:href="#DejaVuSans-116"/><use x="246" xlink:href="#DejaVuSans-95"/><use x="296" xlink:href="#DejaVuSans-110"/><use x="359.4" xlink:href="#DejaVuSans-112"/><use x="422.9" xlink:href="#DejaVuSans-95"/><use x="472.9" xlink:href="#DejaVuSans-98"/><use x="536.4" xlink:href="#DejaVuSans-114"/><use x="577.5" xlink:href="#DejaVuSans-111"/><use x="638.6" xlink:href="#DejaVuSans-97"/><use x="699.9" xlink:href="#DejaVuSans-100"/><use x="763.4" xlink:href="#DejaVuSans-99"/><use x="818.4" xlink:href="#DejaVuSans-97"/><use x="879.7" xlink:href="#DejaVuSans-115"/><use x="931.8" xlink:href="#DejaVuSans-116"/><use x="971" xlink:href="#DejaVuSans-105"/><use x="998.7" xlink:href="#DejaVuSans-110"/><use x="1062.1" xlink:href="#DejaVuSans-103"/></g></g></g></g></g><defs><clipPath id="p368f950a17"><path d="M54 34.6h334.8V252H54z"/></clipPath></defs></svg>